<?xml version="1.0" encoding="UTF-8" standalone="no"?>
<!DOCTYPE svg PUBLIC "-//W3C//DTD SVG 1.1//EN"
 "http://www.w3.org/Graphics/SVG/1.1/DTD/svg11.dtd">
<!-- Generated by graphviz version 2.43.0 (0)
 -->
<!-- Title: G Pages: 1 -->
<svg width="1154pt" height="188pt"
 viewBox="0.00 0.00 1154.48 188.00" xmlns="http://www.w3.org/2000/svg" xmlns:xlink="http://www.w3.org/1999/xlink">
<g id="graph0" class="graph" transform="scale(1 1) rotate(0) translate(4 184)">
<title>G</title>
<polygon fill="white" stroke="transparent" points="-4,4 -4,-184 1150.48,-184 1150.48,4 -4,4"/>
<!-- Abstract Algebra (Aluffi) -->
<g id="node1" class="node">
<title>Abstract Algebra (Aluffi)</title>
<g id="a_node1"><a xlink:href="/books/AbstractAlgebra(Aluffi)" xlink:title="Abstract Algebra (Aluffi)" target="_parent">
<ellipse fill="none" stroke="black" cx="380.89" cy="-90" rx="124.28" ry="18"/>
<text text-anchor="middle" x="380.89" y="-86.3" font-family="Times,serif" font-size="14.00">Abstract Algebra (Aluffi)</text>
</a>
</g>
</g>
<!-- Abstract Algebra (Dummit) -->
<g id="node2" class="node">
<title>Abstract Algebra (Dummit)</title>
<g id="a_node2"><a xlink:href="/field/BasicAbstractAlgebra(Dummit)" xlink:title="Abstract Algebra (Dummit)" target="_parent">
<ellipse fill="none" stroke="red" cx="421.89" cy="-162" rx="136.48" ry="18"/>
<text text-anchor="middle" x="421.89" y="-158.3" font-family="Times,serif" font-size="14.00">Abstract Algebra (Dummit)</text>
</a>
</g>
</g>
<!-- Abstract Algebra (Dummit)&#45;&gt;Abstract Algebra (Aluffi) -->
<g id="edge1" class="edge">
<title>Abstract Algebra (Dummit)&#45;&gt;Abstract Algebra (Aluffi)</title>
<path fill="none" stroke="black" d="M411.75,-143.7C407.04,-135.64 401.33,-125.89 396.11,-116.98"/>
<polygon fill="black" stroke="black" points="398.98,-114.96 390.91,-108.1 392.94,-118.5 398.98,-114.96"/>
</g>
<!-- Commutative Algebra (Atiyah) -->
<g id="node5" class="node">
<title>Commutative Algebra (Atiyah)</title>
<g id="a_node5"><a xlink:href="/books/CommutativeAlgebra(Atiyah)" xlink:title="Commutative Algebra (Atiyah)" target="_parent">
<ellipse fill="none" stroke="black" cx="690.89" cy="-90" rx="151.37" ry="18"/>
<text text-anchor="middle" x="690.89" y="-86.3" font-family="Times,serif" font-size="14.00">Commutative Algebra (Atiyah)</text>
</a>
</g>
</g>
<!-- Abstract Algebra (Dummit)&#45;&gt;Commutative Algebra (Atiyah) -->
<g id="edge3" class="edge">
<title>Abstract Algebra (Dummit)&#45;&gt;Commutative Algebra (Atiyah)</title>
<path fill="none" stroke="black" d="M480.59,-145.72C521.98,-134.95 577.59,-120.48 621.23,-109.13"/>
<polygon fill="black" stroke="black" points="622.12,-112.51 630.92,-106.61 620.36,-105.74 622.12,-112.51"/>
</g>
<!-- Algebraic Geometry (Cox) -->
<g id="node3" class="node">
<title>Algebraic Geometry (Cox)</title>
<g id="a_node3"><a xlink:href="/field/BasicAlgebraicGeometry" xlink:title="Algebraic Geometry (Cox)" target="_parent">
<ellipse fill="none" stroke="red" cx="706.89" cy="-162" rx="130.78" ry="18"/>
<text text-anchor="middle" x="706.89" y="-158.3" font-family="Times,serif" font-size="14.00">Algebraic Geometry (Cox)</text>
</a>
</g>
</g>
<!-- Algebraic Geometry (Cox)&#45;&gt;Commutative Algebra (Atiyah) -->
<g id="edge5" class="edge">
<title>Algebraic Geometry (Cox)&#45;&gt;Commutative Algebra (Atiyah)</title>
<path fill="none" stroke="black" d="M702.93,-143.7C701.17,-135.98 699.05,-126.71 697.09,-118.11"/>
<polygon fill="black" stroke="black" points="700.44,-117.07 694.8,-108.1 693.61,-118.63 700.44,-117.07"/>
</g>
<!-- Category Theory (Awodey) -->
<g id="node4" class="node">
<title>Category Theory (Awodey)</title>
<g id="a_node4"><a xlink:href="/field/CategoryTheory" xlink:title="Category Theory (Awodey)" target="_parent">
<ellipse fill="none" stroke="red" cx="133.89" cy="-162" rx="133.78" ry="18"/>
<text text-anchor="middle" x="133.89" y="-158.3" font-family="Times,serif" font-size="14.00">Category Theory (Awodey)</text>
</a>
</g>
</g>
<!-- Category Theory (Awodey)&#45;&gt;Abstract Algebra (Aluffi) -->
<g id="edge2" class="edge">
<title>Category Theory (Awodey)&#45;&gt;Abstract Algebra (Aluffi)</title>
<path fill="none" stroke="black" d="M188.4,-145.55C226.46,-134.76 277.39,-120.33 317.31,-109.02"/>
<polygon fill="black" stroke="black" points="318.27,-112.38 326.94,-106.29 316.37,-105.65 318.27,-112.38"/>
</g>
<!-- Homological Algebra (Rotman) -->
<g id="node6" class="node">
<title>Homological Algebra (Rotman)</title>
<g id="a_node6"><a xlink:href="/books/HomologicalAlgebra(Rotman)" xlink:title="Homological Algebra (Rotman)" target="_parent">
<ellipse fill="none" stroke="black" cx="419.89" cy="-18" rx="153.27" ry="18"/>
<text text-anchor="middle" x="419.89" y="-14.3" font-family="Times,serif" font-size="14.00">Homological Algebra (Rotman)</text>
</a>
</g>
</g>
<!-- Category Theory (Awodey)&#45;&gt;Homological Algebra (Rotman) -->
<g id="edge7" class="edge">
<title>Category Theory (Awodey)&#45;&gt;Homological Algebra (Rotman)</title>
<path fill="none" stroke="black" d="M151.4,-143.95C172.64,-124.13 210.27,-91.63 247.89,-72 276.76,-56.94 310.63,-45.35 340.64,-36.91"/>
<polygon fill="black" stroke="black" points="341.94,-40.19 350.66,-34.17 340.09,-33.44 341.94,-40.19"/>
</g>
<!-- Commutative Algebra (Atiyah)&#45;&gt;Homological Algebra (Rotman) -->
<g id="edge6" class="edge">
<title>Commutative Algebra (Atiyah)&#45;&gt;Homological Algebra (Rotman)</title>
<path fill="none" stroke="black" d="M630.74,-73.46C589.23,-62.74 533.87,-48.44 490.29,-37.18"/>
<polygon fill="black" stroke="black" points="490.89,-33.72 480.33,-34.61 489.14,-40.5 490.89,-33.72"/>
</g>
<!-- Topology (Lee/Wilansky/Viro) -->
<g id="node7" class="node">
<title>Topology (Lee/Wilansky/Viro)</title>
<g id="a_node7"><a xlink:href="/field/Topology" xlink:title="Topology (Lee/Wilansky/Viro)" target="_parent">
<ellipse fill="none" stroke="red" cx="1000.89" cy="-162" rx="145.67" ry="18"/>
<text text-anchor="middle" x="1000.89" y="-158.3" font-family="Times,serif" font-size="14.00">Topology (Lee/Wilansky/Viro)</text>
</a>
</g>
</g>
<!-- Topology (Lee/Wilansky/Viro)&#45;&gt;Commutative Algebra (Atiyah) -->
<g id="edge4" class="edge">
<title>Topology (Lee/Wilansky/Viro)&#45;&gt;Commutative Algebra (Atiyah)</title>
<path fill="none" stroke="black" d="M934.39,-145.98C885.6,-134.97 819.22,-119.98 768.1,-108.43"/>
<polygon fill="black" stroke="black" points="768.61,-104.96 758.08,-106.17 767.07,-111.79 768.61,-104.96"/>
</g>
</g>
</svg>
