<?xml version="1.0" encoding="UTF-8" standalone="no"?>
<!DOCTYPE svg PUBLIC "-//W3C//DTD SVG 1.1//EN"
 "http://www.w3.org/Graphics/SVG/1.1/DTD/svg11.dtd">
<!-- Generated by graphviz version 2.43.0 (0)
 -->
<!-- Title: G Pages: 1 -->
<svg width="1064pt" height="260pt"
 viewBox="0.00 0.00 1063.87 260.00" xmlns="http://www.w3.org/2000/svg" xmlns:xlink="http://www.w3.org/1999/xlink">
<g id="graph0" class="graph" transform="scale(1 1) rotate(0) translate(4 256)">
<title>G</title>
<polygon fill="white" stroke="transparent" points="-4,4 -4,-256 1059.87,-256 1059.87,4 -4,4"/>
<!-- Analysis on R (Bloch/Spivak) -->
<g id="node1" class="node">
<title>Analysis on R (Bloch/Spivak)</title>
<g id="a_node1"><a xlink:href="/books/AnalysisonR(BlochSpivak)" xlink:title="Analysis on R (Bloch/Spivak)">
<ellipse fill="none" stroke="red" cx="597.18" cy="-234" rx="142.97" ry="18"/>
<text text-anchor="middle" x="597.18" y="-230.3" font-family="Times,serif" font-size="14.00">Analysis on R (Bloch/Spivak)</text>
</a>
</g>
</g>
<!-- Real Analysis (Carothers) -->
<g id="node9" class="node">
<title>Real Analysis (Carothers)</title>
<g id="a_node9"><a xlink:href="/books/RealAnalysis(Carothers)" xlink:title="Real Analysis (Carothers)">
<ellipse fill="none" stroke="black" cx="597.18" cy="-162" rx="128.88" ry="18"/>
<text text-anchor="middle" x="597.18" y="-158.3" font-family="Times,serif" font-size="14.00">Real Analysis (Carothers)</text>
</a>
</g>
</g>
<!-- Analysis on R (Bloch/Spivak)&#45;&gt;Real Analysis (Carothers) -->
<g id="edge3" class="edge">
<title>Analysis on R (Bloch/Spivak)&#45;&gt;Real Analysis (Carothers)</title>
<path fill="none" stroke="black" d="M597.18,-215.7C597.18,-207.98 597.18,-198.71 597.18,-190.11"/>
<polygon fill="black" stroke="black" points="600.68,-190.1 597.18,-180.1 593.68,-190.1 600.68,-190.1"/>
</g>
<!-- Analysis on R^n (Duistermaat) -->
<g id="node2" class="node">
<title>Analysis on R^n (Duistermaat)</title>
<g id="a_node2"><a xlink:href="/books/AnalysisonRn(Duistermaat)" xlink:title="Analysis on R^n (Duistermaat)">
<ellipse fill="none" stroke="red" cx="901.18" cy="-162" rx="154.87" ry="18"/>
<text text-anchor="middle" x="901.18" y="-158.3" font-family="Times,serif" font-size="14.00">Analysis on R^n (Duistermaat)</text>
</a>
</g>
</g>
<!-- Complex Analysis (Freitag) -->
<g id="node5" class="node">
<title>Complex Analysis (Freitag)</title>
<g id="a_node5"><a xlink:href="/books/ComplexAnalysis(Freitag)" xlink:title="Complex Analysis (Freitag)">
<ellipse fill="none" stroke="black" cx="904.18" cy="-90" rx="136.48" ry="18"/>
<text text-anchor="middle" x="904.18" y="-86.3" font-family="Times,serif" font-size="14.00">Complex Analysis (Freitag)</text>
</a>
</g>
</g>
<!-- Analysis on R^n (Duistermaat)&#45;&gt;Complex Analysis (Freitag) -->
<g id="edge5" class="edge">
<title>Analysis on R^n (Duistermaat)&#45;&gt;Complex Analysis (Freitag)</title>
<path fill="none" stroke="black" d="M901.92,-143.7C902.25,-135.98 902.65,-126.71 903.02,-118.11"/>
<polygon fill="black" stroke="black" points="906.52,-118.25 903.45,-108.1 899.52,-117.95 906.52,-118.25"/>
</g>
<!-- Analysis Sequence of Simon -->
<g id="node3" class="node">
<title>Analysis Sequence of Simon</title>
<g id="a_node3"><a xlink:href="/books/AnalysisSequenceofSimon" xlink:title="Analysis Sequence of Simon">
<ellipse fill="none" stroke="black" cx="597.18" cy="-18" rx="141.07" ry="18"/>
<text text-anchor="middle" x="597.18" y="-14.3" font-family="Times,serif" font-size="14.00">Analysis Sequence of Simon</text>
</a>
</g>
</g>
<!-- Complex Analysis 2 (Freitag) -->
<g id="node4" class="node">
<title>Complex Analysis 2 (Freitag)</title>
<g id="a_node4"><a xlink:href="/books/ComplexAnalysis2(Freitag)" xlink:title="Complex Analysis 2 (Freitag)">
<ellipse fill="none" stroke="black" cx="904.18" cy="-18" rx="145.67" ry="18"/>
<text text-anchor="middle" x="904.18" y="-14.3" font-family="Times,serif" font-size="14.00">Complex Analysis 2 (Freitag)</text>
</a>
</g>
</g>
<!-- Complex Analysis (Freitag)&#45;&gt;Analysis Sequence of Simon -->
<g id="edge9" class="edge">
<title>Complex Analysis (Freitag)&#45;&gt;Analysis Sequence of Simon</title>
<path fill="none" stroke="black" d="M839.07,-74.15C790.4,-63.06 723.73,-47.85 672.71,-36.22"/>
<polygon fill="black" stroke="black" points="673.25,-32.76 662.72,-33.94 671.69,-39.58 673.25,-32.76"/>
</g>
<!-- Complex Analysis (Freitag)&#45;&gt;Complex Analysis 2 (Freitag) -->
<g id="edge7" class="edge">
<title>Complex Analysis (Freitag)&#45;&gt;Complex Analysis 2 (Freitag)</title>
<path fill="none" stroke="black" d="M904.18,-71.7C904.18,-63.98 904.18,-54.71 904.18,-46.11"/>
<polygon fill="black" stroke="black" points="907.68,-46.1 904.18,-36.1 900.68,-46.1 907.68,-46.1"/>
</g>
<!-- Introductory Functional Analysis (Kreyszig) -->
<g id="node6" class="node">
<title>Introductory Functional Analysis (Kreyszig)</title>
<g id="a_node6"><a xlink:href="/books/IntroductoryFunctionalAnalysis(Kreyszig)" xlink:title="Introductory Functional Analysis (Kreyszig)">
<ellipse fill="none" stroke="black" cx="213.18" cy="-90" rx="213.36" ry="18"/>
<text text-anchor="middle" x="213.18" y="-86.3" font-family="Times,serif" font-size="14.00">Introductory Functional Analysis (Kreyszig)</text>
</a>
</g>
</g>
<!-- Introductory Functional Analysis (Kreyszig)&#45;&gt;Analysis Sequence of Simon -->
<g id="edge8" class="edge">
<title>Introductory Functional Analysis (Kreyszig)&#45;&gt;Analysis Sequence of Simon</title>
<path fill="none" stroke="black" d="M298.4,-73.46C361.22,-62.01 446.39,-46.49 509.73,-34.94"/>
<polygon fill="black" stroke="black" points="510.49,-38.36 519.7,-33.12 509.23,-31.47 510.49,-38.36"/>
</g>
<!-- Linear Algebra (Friedberg) -->
<g id="node7" class="node">
<title>Linear Algebra (Friedberg)</title>
<g id="a_node7"><a xlink:href="/books/LinearAlgebra(Friedberg)" xlink:title="Linear Algebra (Friedberg)">
<ellipse fill="none" stroke="red" cx="896.18" cy="-234" rx="135.68" ry="18"/>
<text text-anchor="middle" x="896.18" y="-230.3" font-family="Times,serif" font-size="14.00">Linear Algebra (Friedberg)</text>
</a>
</g>
</g>
<!-- Linear Algebra (Friedberg)&#45;&gt;Analysis on R^n (Duistermaat) -->
<g id="edge1" class="edge">
<title>Linear Algebra (Friedberg)&#45;&gt;Analysis on R^n (Duistermaat)</title>
<path fill="none" stroke="black" d="M897.42,-215.7C897.97,-207.98 898.63,-198.71 899.24,-190.11"/>
<polygon fill="black" stroke="black" points="902.74,-190.33 899.96,-180.1 895.76,-189.83 902.74,-190.33"/>
</g>
<!-- Linear Algebra (Friedberg)&#45;&gt;Real Analysis (Carothers) -->
<g id="edge2" class="edge">
<title>Linear Algebra (Friedberg)&#45;&gt;Real Analysis (Carothers)</title>
<path fill="none" stroke="black" d="M832.4,-218.07C784.83,-206.93 719.76,-191.7 670.12,-180.08"/>
<polygon fill="black" stroke="black" points="670.62,-176.6 660.09,-177.73 669.03,-183.42 670.62,-176.6"/>
</g>
<!-- Measure Theory (Jones/Bartle) -->
<g id="node8" class="node">
<title>Measure Theory (Jones/Bartle)</title>
<g id="a_node8"><a xlink:href="/books/MeasureTheory(JonesBartle)" xlink:title="Measure Theory (Jones/Bartle)">
<ellipse fill="none" stroke="black" cx="597.18" cy="-90" rx="152.97" ry="18"/>
<text text-anchor="middle" x="597.18" y="-86.3" font-family="Times,serif" font-size="14.00">Measure Theory (Jones/Bartle)</text>
</a>
</g>
</g>
<!-- Measure Theory (Jones/Bartle)&#45;&gt;Analysis Sequence of Simon -->
<g id="edge10" class="edge">
<title>Measure Theory (Jones/Bartle)&#45;&gt;Analysis Sequence of Simon</title>
<path fill="none" stroke="black" d="M597.18,-71.7C597.18,-63.98 597.18,-54.71 597.18,-46.11"/>
<polygon fill="black" stroke="black" points="600.68,-46.1 597.18,-36.1 593.68,-46.1 600.68,-46.1"/>
</g>
<!-- Real Analysis (Carothers)&#45;&gt;Introductory Functional Analysis (Kreyszig) -->
<g id="edge6" class="edge">
<title>Real Analysis (Carothers)&#45;&gt;Introductory Functional Analysis (Kreyszig)</title>
<path fill="none" stroke="black" d="M522.23,-147.34C461.09,-136.19 374.34,-120.38 308.31,-108.34"/>
<polygon fill="black" stroke="black" points="308.78,-104.87 298.31,-106.52 307.52,-111.76 308.78,-104.87"/>
</g>
<!-- Real Analysis (Carothers)&#45;&gt;Measure Theory (Jones/Bartle) -->
<g id="edge4" class="edge">
<title>Real Analysis (Carothers)&#45;&gt;Measure Theory (Jones/Bartle)</title>
<path fill="none" stroke="black" d="M597.18,-143.7C597.18,-135.98 597.18,-126.71 597.18,-118.11"/>
<polygon fill="black" stroke="black" points="600.68,-118.1 597.18,-108.1 593.68,-118.1 600.68,-118.1"/>
</g>
</g>
</svg>
