<?xml version="1.0" encoding="UTF-8" standalone="no"?>
<!DOCTYPE svg PUBLIC "-//W3C//DTD SVG 1.1//EN"
 "http://www.w3.org/Graphics/SVG/1.1/DTD/svg11.dtd">
<!-- Generated by graphviz version 2.43.0 (0)
 -->
<!-- Title: G Pages: 1 -->
<svg width="1178pt" height="260pt"
 viewBox="0.00 0.00 1178.48 260.00" xmlns="http://www.w3.org/2000/svg" xmlns:xlink="http://www.w3.org/1999/xlink">
<g id="graph0" class="graph" transform="scale(1 1) rotate(0) translate(4 256)">
<title>G</title>
<polygon fill="white" stroke="transparent" points="-4,4 -4,-256 1174.48,-256 1174.48,4 -4,4"/>
<!-- Algebraic Curves (Kirwan) -->
<g id="node1" class="node">
<title>Algebraic Curves (Kirwan)</title>
<g id="a_node1"><a xlink:href="/books/AlgebraicCurves(Kirwan)" xlink:title="Algebraic Curves (Kirwan)" target="_parent">
<ellipse fill="none" stroke="black" cx="727.89" cy="-162" rx="133.48" ry="18"/>
<text text-anchor="middle" x="727.89" y="-158.3" font-family="Times,serif" font-size="14.00">Algebraic Curves (Kirwan)</text>
</a>
</g>
</g>
<!-- Riemann Surfaces (Miranda) -->
<g id="node6" class="node">
<title>Riemann Surfaces (Miranda)</title>
<g id="a_node6"><a xlink:href="/books/RiemannSurfaces(Miranda)" xlink:title="Riemann Surfaces (Miranda)" target="_parent">
<ellipse fill="none" stroke="black" cx="727.89" cy="-90" rx="143.77" ry="18"/>
<text text-anchor="middle" x="727.89" y="-86.3" font-family="Times,serif" font-size="14.00">Riemann Surfaces (Miranda)</text>
</a>
</g>
</g>
<!-- Algebraic Curves (Kirwan)&#45;&gt;Riemann Surfaces (Miranda) -->
<g id="edge7" class="edge">
<title>Algebraic Curves (Kirwan)&#45;&gt;Riemann Surfaces (Miranda)</title>
<path fill="none" stroke="black" d="M727.89,-143.7C727.89,-135.98 727.89,-126.71 727.89,-118.11"/>
<polygon fill="black" stroke="black" points="731.39,-118.1 727.89,-108.1 724.39,-118.1 731.39,-118.1"/>
</g>
<!-- Algebraic Geometry (Cox) -->
<g id="node2" class="node">
<title>Algebraic Geometry (Cox)</title>
<g id="a_node2"><a xlink:href="/books/AlgebraicGeometry(Cox)" xlink:title="Algebraic Geometry (Cox)" target="_parent">
<ellipse fill="none" stroke="red" cx="727.89" cy="-234" rx="130.78" ry="18"/>
<text text-anchor="middle" x="727.89" y="-230.3" font-family="Times,serif" font-size="14.00">Algebraic Geometry (Cox)</text>
</a>
</g>
</g>
<!-- Algebraic Geometry (Cox)&#45;&gt;Algebraic Curves (Kirwan) -->
<g id="edge3" class="edge">
<title>Algebraic Geometry (Cox)&#45;&gt;Algebraic Curves (Kirwan)</title>
<path fill="none" stroke="black" d="M727.89,-215.7C727.89,-207.98 727.89,-198.71 727.89,-190.11"/>
<polygon fill="black" stroke="black" points="731.39,-190.1 727.89,-180.1 724.39,-190.1 731.39,-190.1"/>
</g>
<!-- Category Theory (Awodey) -->
<g id="node3" class="node">
<title>Category Theory (Awodey)</title>
<g id="a_node3"><a xlink:href="/books/CategoryTheory(Awodey)" xlink:title="Category Theory (Awodey)" target="_parent">
<ellipse fill="none" stroke="red" cx="133.89" cy="-162" rx="133.78" ry="18"/>
<text text-anchor="middle" x="133.89" y="-158.3" font-family="Times,serif" font-size="14.00">Category Theory (Awodey)</text>
</a>
</g>
</g>
<!-- Sheaf Theory (Tennison) -->
<g id="node8" class="node">
<title>Sheaf Theory (Tennison)</title>
<g id="a_node8"><a xlink:href="/books/SheafTheory(Tennison)" xlink:title="Sheaf Theory (Tennison)" target="_parent">
<ellipse fill="none" stroke="black" cx="430.89" cy="-90" rx="123.48" ry="18"/>
<text text-anchor="middle" x="430.89" y="-86.3" font-family="Times,serif" font-size="14.00">Sheaf Theory (Tennison)</text>
</a>
</g>
</g>
<!-- Category Theory (Awodey)&#45;&gt;Sheaf Theory (Tennison) -->
<g id="edge1" class="edge">
<title>Category Theory (Awodey)&#45;&gt;Sheaf Theory (Tennison)</title>
<path fill="none" stroke="black" d="M197.24,-146.07C244.65,-134.89 309.56,-119.59 358.94,-107.96"/>
<polygon fill="black" stroke="black" points="359.98,-111.31 368.91,-105.61 358.37,-104.5 359.98,-111.31"/>
</g>
<!-- Complex Analysis 2 (Freitag) -->
<g id="node4" class="node">
<title>Complex Analysis 2 (Freitag)</title>
<g id="a_node4"><a xlink:href="/books/ComplexAnalysis2(Freitag)" xlink:title="Complex Analysis 2 (Freitag)" target="_parent">
<ellipse fill="none" stroke="red" cx="1024.89" cy="-162" rx="145.67" ry="18"/>
<text text-anchor="middle" x="1024.89" y="-158.3" font-family="Times,serif" font-size="14.00">Complex Analysis 2 (Freitag)</text>
</a>
</g>
</g>
<!-- Complex Analysis 2 (Freitag)&#45;&gt;Riemann Surfaces (Miranda) -->
<g id="edge6" class="edge">
<title>Complex Analysis 2 (Freitag)&#45;&gt;Riemann Surfaces (Miranda)</title>
<path fill="none" stroke="black" d="M960.44,-145.81C913.84,-134.83 850.76,-119.96 802.06,-108.48"/>
<polygon fill="black" stroke="black" points="802.74,-105.05 792.21,-106.16 801.14,-111.86 802.74,-105.05"/>
</g>
<!-- Complex Analysis (Freitag) -->
<g id="node5" class="node">
<title>Complex Analysis (Freitag)</title>
<g id="a_node5"><a xlink:href="/books/ComplexAnalysis(Freitag)" xlink:title="Complex Analysis (Freitag)" target="_parent">
<ellipse fill="none" stroke="red" cx="1018.89" cy="-234" rx="136.48" ry="18"/>
<text text-anchor="middle" x="1018.89" y="-230.3" font-family="Times,serif" font-size="14.00">Complex Analysis (Freitag)</text>
</a>
</g>
</g>
<!-- Complex Analysis (Freitag)&#45;&gt;Algebraic Curves (Kirwan) -->
<g id="edge4" class="edge">
<title>Complex Analysis (Freitag)&#45;&gt;Algebraic Curves (Kirwan)</title>
<path fill="none" stroke="black" d="M956.46,-217.98C910.55,-206.94 848.03,-191.9 799.98,-180.34"/>
<polygon fill="black" stroke="black" points="800.5,-176.87 789.96,-177.93 798.87,-183.67 800.5,-176.87"/>
</g>
<!-- Complex Analysis (Freitag)&#45;&gt;Complex Analysis 2 (Freitag) -->
<g id="edge5" class="edge">
<title>Complex Analysis (Freitag)&#45;&gt;Complex Analysis 2 (Freitag)</title>
<path fill="none" stroke="black" d="M1020.37,-215.7C1021.03,-207.98 1021.83,-198.71 1022.56,-190.11"/>
<polygon fill="black" stroke="black" points="1026.06,-190.37 1023.42,-180.1 1019.08,-189.77 1026.06,-190.37"/>
</g>
<!-- Scheme Theory (Ueno) -->
<g id="node7" class="node">
<title>Scheme Theory (Ueno)</title>
<g id="a_node7"><a xlink:href="/books/SchemeTheory(Ueno)" xlink:title="Scheme Theory (Ueno)" target="_parent">
<ellipse fill="none" stroke="black" cx="578.89" cy="-18" rx="116.18" ry="18"/>
<text text-anchor="middle" x="578.89" y="-14.3" font-family="Times,serif" font-size="14.00">Scheme Theory (Ueno)</text>
</a>
</g>
</g>
<!-- Riemann Surfaces (Miranda)&#45;&gt;Scheme Theory (Ueno) -->
<g id="edge8" class="edge">
<title>Riemann Surfaces (Miranda)&#45;&gt;Scheme Theory (Ueno)</title>
<path fill="none" stroke="black" d="M692.58,-72.41C671.64,-62.58 644.94,-50.03 622.67,-39.57"/>
<polygon fill="black" stroke="black" points="623.97,-36.31 613.43,-35.23 620.99,-42.65 623.97,-36.31"/>
</g>
<!-- Sheaf Theory (Tennison)&#45;&gt;Scheme Theory (Ueno) -->
<g id="edge9" class="edge">
<title>Sheaf Theory (Tennison)&#45;&gt;Scheme Theory (Ueno)</title>
<path fill="none" stroke="black" d="M465.59,-72.59C486.37,-62.76 512.98,-50.17 535.19,-39.67"/>
<polygon fill="black" stroke="black" points="536.86,-42.75 544.41,-35.31 533.87,-36.42 536.86,-42.75"/>
</g>
<!-- Topology (Lee/Wilansky/Viro) -->
<g id="node9" class="node">
<title>Topology (Lee/Wilansky/Viro)</title>
<g id="a_node9"><a xlink:href="/books/Topology(LeeWilanskyViro)" xlink:title="Topology (Lee/Wilansky/Viro)" target="_parent">
<ellipse fill="none" stroke="red" cx="430.89" cy="-162" rx="145.67" ry="18"/>
<text text-anchor="middle" x="430.89" y="-158.3" font-family="Times,serif" font-size="14.00">Topology (Lee/Wilansky/Viro)</text>
</a>
</g>
</g>
<!-- Topology (Lee/Wilansky/Viro)&#45;&gt;Sheaf Theory (Tennison) -->
<g id="edge2" class="edge">
<title>Topology (Lee/Wilansky/Viro)&#45;&gt;Sheaf Theory (Tennison)</title>
<path fill="none" stroke="black" d="M430.89,-143.7C430.89,-135.98 430.89,-126.71 430.89,-118.11"/>
<polygon fill="black" stroke="black" points="434.39,-118.1 430.89,-108.1 427.39,-118.1 434.39,-118.1"/>
</g>
</g>
</svg>
