<?xml version="1.0" encoding="UTF-8" standalone="no"?>
<!DOCTYPE svg PUBLIC "-//W3C//DTD SVG 1.1//EN"
 "http://www.w3.org/Graphics/SVG/1.1/DTD/svg11.dtd">
<!-- Generated by graphviz version 2.43.0 (0)
 -->
<!-- Title: G Pages: 1 -->
<svg width="584pt" height="188pt"
 viewBox="0.00 0.00 583.83 188.00" xmlns="http://www.w3.org/2000/svg" xmlns:xlink="http://www.w3.org/1999/xlink">
<g id="graph0" class="graph" transform="scale(1 1) rotate(0) translate(4 184)">
<title>G</title>
<polygon fill="white" stroke="transparent" points="-4,4 -4,-184 579.83,-184 579.83,4 -4,4"/>
<!-- How To Prove It (Velleman) -->
<g id="node1" class="node">
<title>How To Prove It (Velleman)</title>
<g id="a_node1"><a xlink:href="/books/HowToProveIt(Velleman)" xlink:title="How To Prove It (Velleman)" target="_parent">
<ellipse fill="none" stroke="red" cx="142.99" cy="-162" rx="137.58" ry="18"/>
<text text-anchor="middle" x="142.99" y="-158.3" font-family="Times,serif" font-size="14.00">How To Prove It (Velleman)</text>
</a>
</g>
</g>
<!-- Analysis on R (Bloch/Spivak) -->
<g id="node2" class="node">
<title>Analysis on R (Bloch/Spivak)</title>
<g id="a_node2"><a xlink:href="/books/AnalysisonR(Bloch/Spivak)" xlink:title="Analysis on R (Bloch/Spivak)" target="_parent">
<ellipse fill="none" stroke="black" cx="142.99" cy="-90" rx="142.97" ry="18"/>
<text text-anchor="middle" x="142.99" y="-86.3" font-family="Times,serif" font-size="14.00">Analysis on R (Bloch/Spivak)</text>
</a>
</g>
</g>
<!-- How To Prove It (Velleman)&#45;&gt;Analysis on R (Bloch/Spivak) -->
<g id="edge1" class="edge">
<title>How To Prove It (Velleman)&#45;&gt;Analysis on R (Bloch/Spivak)</title>
<path fill="none" stroke="black" d="M142.99,-143.7C142.99,-135.98 142.99,-126.71 142.99,-118.11"/>
<polygon fill="black" stroke="black" points="146.49,-118.1 142.99,-108.1 139.49,-118.1 146.49,-118.1"/>
</g>
<!-- Analysis on R^n (Duistermaat) -->
<g id="node4" class="node">
<title>Analysis on R^n (Duistermaat)</title>
<g id="a_node4"><a xlink:href="/books/AnalysisonRn(Duistermaat)" xlink:title="Analysis on R^n (Duistermaat)" target="_parent">
<ellipse fill="none" stroke="black" cx="290.99" cy="-18" rx="154.87" ry="18"/>
<text text-anchor="middle" x="290.99" y="-14.3" font-family="Times,serif" font-size="14.00">Analysis on R^n (Duistermaat)</text>
</a>
</g>
</g>
<!-- Analysis on R (Bloch/Spivak)&#45;&gt;Analysis on R^n (Duistermaat) -->
<g id="edge2" class="edge">
<title>Analysis on R (Bloch/Spivak)&#45;&gt;Analysis on R^n (Duistermaat)</title>
<path fill="none" stroke="black" d="M178.06,-72.41C198.63,-62.68 224.81,-50.3 246.78,-39.91"/>
<polygon fill="black" stroke="black" points="248.37,-43.03 255.91,-35.59 245.37,-36.7 248.37,-43.03"/>
</g>
<!-- Linear Algebra (Friedberg) -->
<g id="node3" class="node">
<title>Linear Algebra (Friedberg)</title>
<g id="a_node3"><a xlink:href="/books/LinearAlgebra(Friedberg)" xlink:title="Linear Algebra (Friedberg)" target="_parent">
<ellipse fill="none" stroke="red" cx="439.99" cy="-90" rx="135.68" ry="18"/>
<text text-anchor="middle" x="439.99" y="-86.3" font-family="Times,serif" font-size="14.00">Linear Algebra (Friedberg)</text>
</a>
</g>
</g>
<!-- Linear Algebra (Friedberg)&#45;&gt;Analysis on R^n (Duistermaat) -->
<g id="edge3" class="edge">
<title>Linear Algebra (Friedberg)&#45;&gt;Analysis on R^n (Duistermaat)</title>
<path fill="none" stroke="black" d="M405.05,-72.59C384.28,-62.83 357.73,-50.35 335.47,-39.9"/>
<polygon fill="black" stroke="black" points="336.76,-36.64 326.22,-35.55 333.78,-42.97 336.76,-36.64"/>
</g>
</g>
</svg>
