<?xml version="1.0" encoding="UTF-8" standalone="no"?>
<!DOCTYPE svg PUBLIC "-//W3C//DTD SVG 1.1//EN"
 "http://www.w3.org/Graphics/SVG/1.1/DTD/svg11.dtd">
<!-- Generated by graphviz version 2.43.0 (0)
 -->
<!-- Title: G Pages: 1 -->
<svg width="541pt" height="260pt"
 viewBox="0.00 0.00 540.95 260.00" xmlns="http://www.w3.org/2000/svg" xmlns:xlink="http://www.w3.org/1999/xlink">
<g id="graph0" class="graph" transform="scale(1 1) rotate(0) translate(4 256)">
<title>G</title>
<polygon fill="white" stroke="transparent" points="-4,4 -4,-256 536.95,-256 536.95,4 -4,4"/>
<!-- How To Prove It (Velleman) -->
<g id="node1" class="node">
<title>How To Prove It (Velleman)</title>
<g id="a_node1"><a xlink:href="/books/HowToProveIt(Velleman)" xlink:title="How To Prove It (Velleman)" target="_parent">
<ellipse fill="none" stroke="red" cx="266.48" cy="-234" rx="137.58" ry="18"/>
<text text-anchor="middle" x="266.48" y="-230.3" font-family="Times,serif" font-size="14.00">How To Prove It (Velleman)</text>
</a>
</g>
</g>
<!-- Logical Options (Bell) -->
<g id="node2" class="node">
<title>Logical Options (Bell)</title>
<g id="a_node2"><a xlink:href="/books/LogicalOptions(Bell)" xlink:title="Logical Options (Bell)" target="_parent">
<ellipse fill="none" stroke="black" cx="266.48" cy="-162" rx="110.48" ry="18"/>
<text text-anchor="middle" x="266.48" y="-158.3" font-family="Times,serif" font-size="14.00">Logical Options (Bell)</text>
</a>
</g>
</g>
<!-- How To Prove It (Velleman)&#45;&gt;Logical Options (Bell) -->
<g id="edge1" class="edge">
<title>How To Prove It (Velleman)&#45;&gt;Logical Options (Bell)</title>
<path fill="none" stroke="black" d="M266.48,-215.7C266.48,-207.98 266.48,-198.71 266.48,-190.11"/>
<polygon fill="black" stroke="black" points="269.98,-190.1 266.48,-180.1 262.98,-190.1 269.98,-190.1"/>
</g>
<!-- Mathematical Logic (Bell) -->
<g id="node3" class="node">
<title>Mathematical Logic (Bell)</title>
<g id="a_node3"><a xlink:href="/books/MathematicalLogic(Bell)" xlink:title="Mathematical Logic (Bell)" target="_parent">
<ellipse fill="none" stroke="black" cx="137.48" cy="-90" rx="129.98" ry="18"/>
<text text-anchor="middle" x="137.48" y="-86.3" font-family="Times,serif" font-size="14.00">Mathematical Logic (Bell)</text>
</a>
</g>
</g>
<!-- Logical Options (Bell)&#45;&gt;Mathematical Logic (Bell) -->
<g id="edge2" class="edge">
<title>Logical Options (Bell)&#45;&gt;Mathematical Logic (Bell)</title>
<path fill="none" stroke="black" d="M236.23,-144.59C218.57,-135 196.08,-122.8 177.02,-112.46"/>
<polygon fill="black" stroke="black" points="178.44,-109.24 167.98,-107.55 175.1,-115.4 178.44,-109.24"/>
</g>
<!-- Set Theory (Hrbacek) -->
<g id="node4" class="node">
<title>Set Theory (Hrbacek)</title>
<g id="a_node4"><a xlink:href="/books/SetTheory(Hrbacek)" xlink:title="Set Theory (Hrbacek)" target="_parent">
<ellipse fill="none" stroke="black" cx="395.48" cy="-90" rx="110.48" ry="18"/>
<text text-anchor="middle" x="395.48" y="-86.3" font-family="Times,serif" font-size="14.00">Set Theory (Hrbacek)</text>
</a>
</g>
</g>
<!-- Logical Options (Bell)&#45;&gt;Set Theory (Hrbacek) -->
<g id="edge3" class="edge">
<title>Logical Options (Bell)&#45;&gt;Set Theory (Hrbacek)</title>
<path fill="none" stroke="black" d="M296.72,-144.59C314.38,-135 336.88,-122.8 355.93,-112.46"/>
<polygon fill="black" stroke="black" points="357.85,-115.4 364.97,-107.55 354.52,-109.24 357.85,-115.4"/>
</g>
<!-- Boolean Valued Models and Independence Proofs (Bell) -->
<g id="node5" class="node">
<title>Boolean Valued Models and Independence Proofs (Bell)</title>
<g id="a_node5"><a xlink:href="/books/BooleanValuedModelsandIndependenceProofs(Bell)" xlink:title="Boolean Valued Models and Independence Proofs (Bell)" target="_parent">
<ellipse fill="none" stroke="black" cx="266.48" cy="-18" rx="266.45" ry="18"/>
<text text-anchor="middle" x="266.48" y="-14.3" font-family="Times,serif" font-size="14.00">Boolean Valued Models and Independence Proofs (Bell)</text>
</a>
</g>
</g>
<!-- Mathematical Logic (Bell)&#45;&gt;Boolean Valued Models and Independence Proofs (Bell) -->
<g id="edge4" class="edge">
<title>Mathematical Logic (Bell)&#45;&gt;Boolean Valued Models and Independence Proofs (Bell)</title>
<path fill="none" stroke="black" d="M168.05,-72.41C185.46,-62.96 207.49,-51.01 226.29,-40.8"/>
<polygon fill="black" stroke="black" points="228.11,-43.8 235.23,-35.96 224.77,-37.65 228.11,-43.8"/>
</g>
<!-- Set Theory (Hrbacek)&#45;&gt;Boolean Valued Models and Independence Proofs (Bell) -->
<g id="edge5" class="edge">
<title>Set Theory (Hrbacek)&#45;&gt;Boolean Valued Models and Independence Proofs (Bell)</title>
<path fill="none" stroke="black" d="M365.23,-72.59C347.82,-63.14 325.73,-51.15 306.85,-40.91"/>
<polygon fill="black" stroke="black" points="308.34,-37.73 297.88,-36.04 305,-43.89 308.34,-37.73"/>
</g>
</g>
</svg>
