<?xml version="1.0" encoding="UTF-8" standalone="no"?>
<!DOCTYPE svg PUBLIC "-//W3C//DTD SVG 1.1//EN"
 "http://www.w3.org/Graphics/SVG/1.1/DTD/svg11.dtd">
<!-- Generated by graphviz version 2.43.0 (0)
 -->
<!-- Title: G Pages: 1 -->
<svg width="336pt" height="404pt"
 viewBox="0.00 0.00 335.57 404.00" xmlns="http://www.w3.org/2000/svg" xmlns:xlink="http://www.w3.org/1999/xlink">
<g id="graph0" class="graph" transform="scale(1 1) rotate(0) translate(4 400)">
<title>G</title>
<polygon fill="white" stroke="transparent" points="-4,4 -4,-400 331.57,-400 331.57,4 -4,4"/>
<!-- Pre&#45;algebra (Openstax) -->
<g id="node1" class="node">
<title>Pre&#45;algebra (Openstax)</title>
<g id="a_node1"><a xlink:href="/books/Pre-algebra(Openstax)" xlink:title="Pre&#45;algebra (Openstax)">
<ellipse fill="none" stroke="black" cx="163.79" cy="-378" rx="118.08" ry="18"/>
<text text-anchor="middle" x="163.79" y="-374.3" font-family="Times,serif" font-size="14.00">Pre&#45;algebra (Openstax)</text>
</a>
</g>
</g>
<!-- Elementary Algebra (Openstax) -->
<g id="node2" class="node">
<title>Elementary Algebra (Openstax)</title>
<g id="a_node2"><a xlink:href="/books/ElementaryAlgebra(Openstax)" xlink:title="Elementary Algebra (Openstax)">
<ellipse fill="none" stroke="black" cx="163.79" cy="-306" rx="157.07" ry="18"/>
<text text-anchor="middle" x="163.79" y="-302.3" font-family="Times,serif" font-size="14.00">Elementary Algebra (Openstax)</text>
</a>
</g>
</g>
<!-- Pre&#45;algebra (Openstax)&#45;&gt;Elementary Algebra (Openstax) -->
<g id="edge1" class="edge">
<title>Pre&#45;algebra (Openstax)&#45;&gt;Elementary Algebra (Openstax)</title>
<path fill="none" stroke="black" d="M163.79,-359.7C163.79,-351.98 163.79,-342.71 163.79,-334.11"/>
<polygon fill="black" stroke="black" points="167.29,-334.1 163.79,-324.1 160.29,-334.1 167.29,-334.1"/>
</g>
<!-- Intermediate Algebra (Openstax) -->
<g id="node3" class="node">
<title>Intermediate Algebra (Openstax)</title>
<g id="a_node3"><a xlink:href="/books/IntermediateAlgebra(Openstax)" xlink:title="Intermediate Algebra (Openstax)">
<ellipse fill="none" stroke="black" cx="163.79" cy="-234" rx="163.57" ry="18"/>
<text text-anchor="middle" x="163.79" y="-230.3" font-family="Times,serif" font-size="14.00">Intermediate Algebra (Openstax)</text>
</a>
</g>
</g>
<!-- Elementary Algebra (Openstax)&#45;&gt;Intermediate Algebra (Openstax) -->
<g id="edge2" class="edge">
<title>Elementary Algebra (Openstax)&#45;&gt;Intermediate Algebra (Openstax)</title>
<path fill="none" stroke="black" d="M163.79,-287.7C163.79,-279.98 163.79,-270.71 163.79,-262.11"/>
<polygon fill="black" stroke="black" points="167.29,-262.1 163.79,-252.1 160.29,-262.1 167.29,-262.1"/>
</g>
<!-- Trigonometry (Gelfand) -->
<g id="node6" class="node">
<title>Trigonometry (Gelfand)</title>
<g id="a_node6"><a xlink:href="/books/Trigonometry(Gelfand)" xlink:title="Trigonometry (Gelfand)">
<ellipse fill="none" stroke="black" cx="163.79" cy="-162" rx="120.48" ry="18"/>
<text text-anchor="middle" x="163.79" y="-158.3" font-family="Times,serif" font-size="14.00">Trigonometry (Gelfand)</text>
</a>
</g>
</g>
<!-- Intermediate Algebra (Openstax)&#45;&gt;Trigonometry (Gelfand) -->
<g id="edge4" class="edge">
<title>Intermediate Algebra (Openstax)&#45;&gt;Trigonometry (Gelfand)</title>
<path fill="none" stroke="black" d="M163.79,-215.7C163.79,-207.98 163.79,-198.71 163.79,-190.11"/>
<polygon fill="black" stroke="black" points="167.29,-190.1 163.79,-180.1 160.29,-190.1 167.29,-190.1"/>
</g>
<!-- Geometry (Lang) -->
<g id="node4" class="node">
<title>Geometry (Lang)</title>
<g id="a_node4"><a xlink:href="/books/Geometry(Lang)" xlink:title="Geometry (Lang)">
<ellipse fill="none" stroke="black" cx="163.79" cy="-90" rx="89.08" ry="18"/>
<text text-anchor="middle" x="163.79" y="-86.3" font-family="Times,serif" font-size="14.00">Geometry (Lang)</text>
</a>
</g>
</g>
<!-- Basic Mathematics (Lang) -->
<g id="node5" class="node">
<title>Basic Mathematics (Lang)</title>
<g id="a_node5"><a xlink:href="/books/BasicMathematics(Lang)" xlink:title="Basic Mathematics (Lang)">
<ellipse fill="none" stroke="black" cx="163.79" cy="-18" rx="131.88" ry="18"/>
<text text-anchor="middle" x="163.79" y="-14.3" font-family="Times,serif" font-size="14.00">Basic Mathematics (Lang)</text>
</a>
</g>
</g>
<!-- Geometry (Lang)&#45;&gt;Basic Mathematics (Lang) -->
<g id="edge3" class="edge">
<title>Geometry (Lang)&#45;&gt;Basic Mathematics (Lang)</title>
<path fill="none" stroke="black" d="M163.79,-71.7C163.79,-63.98 163.79,-54.71 163.79,-46.11"/>
<polygon fill="black" stroke="black" points="167.29,-46.1 163.79,-36.1 160.29,-46.1 167.29,-46.1"/>
</g>
<!-- Trigonometry (Gelfand)&#45;&gt;Geometry (Lang) -->
<g id="edge5" class="edge">
<title>Trigonometry (Gelfand)&#45;&gt;Geometry (Lang)</title>
<path fill="none" stroke="black" d="M163.79,-143.7C163.79,-135.98 163.79,-126.71 163.79,-118.11"/>
<polygon fill="black" stroke="black" points="167.29,-118.1 163.79,-108.1 160.29,-118.1 167.29,-118.1"/>
</g>
</g>
</svg>
