<?xml version="1.0" encoding="UTF-8" standalone="no"?>
<!DOCTYPE svg PUBLIC "-//W3C//DTD SVG 1.1//EN"
 "http://www.w3.org/Graphics/SVG/1.1/DTD/svg11.dtd">
<!-- Generated by graphviz version 2.43.0 (0)
 -->
<!-- Title: G Pages: 1 -->
<svg width="940pt" height="188pt"
 viewBox="0.00 0.00 940.37 188.00" xmlns="http://www.w3.org/2000/svg" xmlns:xlink="http://www.w3.org/1999/xlink">
<g id="graph0" class="graph" transform="scale(1 1) rotate(0) translate(4 184)">
<title>G</title>
<polygon fill="white" stroke="transparent" points="-4,4 -4,-184 936.37,-184 936.37,4 -4,4"/>
<!-- How To Prove It (Velleman) -->
<g id="node1" class="node">
<title>How To Prove It (Velleman)</title>
<g id="a_node1"><a xlink:href="/books/HowToProveIt(Velleman)" xlink:title="How To Prove It (Velleman)">
<ellipse fill="none" stroke="red" cx="719.49" cy="-162" rx="137.58" ry="18"/>
<text text-anchor="middle" x="719.49" y="-158.3" font-family="Times,serif" font-size="14.00">How To Prove It (Velleman)</text>
</a>
</g>
</g>
<!-- Linear Algebra (Friedberg) -->
<g id="node2" class="node">
<title>Linear Algebra (Friedberg)</title>
<g id="a_node2"><a xlink:href="/books/LinearAlgebra(Friedberg)" xlink:title="Linear Algebra (Friedberg)">
<ellipse fill="none" stroke="black" cx="719.49" cy="-90" rx="135.68" ry="18"/>
<text text-anchor="middle" x="719.49" y="-86.3" font-family="Times,serif" font-size="14.00">Linear Algebra (Friedberg)</text>
</a>
</g>
</g>
<!-- How To Prove It (Velleman)&#45;&gt;Linear Algebra (Friedberg) -->
<g id="edge1" class="edge">
<title>How To Prove It (Velleman)&#45;&gt;Linear Algebra (Friedberg)</title>
<path fill="none" stroke="black" d="M719.49,-143.7C719.49,-135.98 719.49,-126.71 719.49,-118.11"/>
<polygon fill="black" stroke="black" points="722.99,-118.1 719.49,-108.1 715.99,-118.1 722.99,-118.1"/>
</g>
<!-- Advanced Linear Algebra (Roman) -->
<g id="node3" class="node">
<title>Advanced Linear Algebra (Roman)</title>
<g id="a_node3"><a xlink:href="/books/AdvancedLinearAlgebra(Roman)" xlink:title="Advanced Linear Algebra (Roman)">
<ellipse fill="none" stroke="black" cx="373.49" cy="-18" rx="168.97" ry="18"/>
<text text-anchor="middle" x="373.49" y="-14.3" font-family="Times,serif" font-size="14.00">Advanced Linear Algebra (Roman)</text>
</a>
</g>
</g>
<!-- Linear Algebra (Friedberg)&#45;&gt;Advanced Linear Algebra (Roman) -->
<g id="edge2" class="edge">
<title>Linear Algebra (Friedberg)&#45;&gt;Advanced Linear Algebra (Roman)</title>
<path fill="none" stroke="black" d="M648.22,-74.58C593.14,-63.44 516.74,-47.98 458.48,-36.19"/>
<polygon fill="black" stroke="black" points="459.05,-32.74 448.56,-34.19 457.67,-39.6 459.05,-32.74"/>
</g>
<!-- Numerical Linear Algebra (Trefethen) -->
<g id="node6" class="node">
<title>Numerical Linear Algebra (Trefethen)</title>
<g id="a_node6"><a xlink:href="/books/NumericalLinearAlgebra(Trefethen)" xlink:title="Numerical Linear Algebra (Trefethen)">
<ellipse fill="none" stroke="black" cx="746.49" cy="-18" rx="185.77" ry="18"/>
<text text-anchor="middle" x="746.49" y="-14.3" font-family="Times,serif" font-size="14.00">Numerical Linear Algebra (Trefethen)</text>
</a>
</g>
</g>
<!-- Linear Algebra (Friedberg)&#45;&gt;Numerical Linear Algebra (Trefethen) -->
<g id="edge5" class="edge">
<title>Linear Algebra (Friedberg)&#45;&gt;Numerical Linear Algebra (Trefethen)</title>
<path fill="none" stroke="black" d="M726.16,-71.7C729.2,-63.81 732.87,-54.3 736.25,-45.55"/>
<polygon fill="black" stroke="black" points="739.56,-46.69 739.89,-36.1 733.03,-44.17 739.56,-46.69"/>
</g>
<!-- Abstract Algebra (Dummit) -->
<g id="node4" class="node">
<title>Abstract Algebra (Dummit)</title>
<g id="a_node4"><a xlink:href="/books/AbstractAlgebra(Dummit)" xlink:title="Abstract Algebra (Dummit)">
<ellipse fill="none" stroke="red" cx="136.49" cy="-90" rx="136.48" ry="18"/>
<text text-anchor="middle" x="136.49" y="-86.3" font-family="Times,serif" font-size="14.00">Abstract Algebra (Dummit)</text>
</a>
</g>
</g>
<!-- Abstract Algebra (Dummit)&#45;&gt;Advanced Linear Algebra (Roman) -->
<g id="edge3" class="edge">
<title>Abstract Algebra (Dummit)&#45;&gt;Advanced Linear Algebra (Roman)</title>
<path fill="none" stroke="black" d="M189.38,-73.38C224.82,-62.91 271.7,-49.07 309.28,-37.97"/>
<polygon fill="black" stroke="black" points="310.51,-41.25 319.11,-35.06 308.53,-34.54 310.51,-41.25"/>
</g>
<!-- Set Theory (Hrbacek) -->
<g id="node5" class="node">
<title>Set Theory (Hrbacek)</title>
<g id="a_node5"><a xlink:href="/books/SetTheory(Hrbacek)" xlink:title="Set Theory (Hrbacek)">
<ellipse fill="none" stroke="red" cx="401.49" cy="-90" rx="110.48" ry="18"/>
<text text-anchor="middle" x="401.49" y="-86.3" font-family="Times,serif" font-size="14.00">Set Theory (Hrbacek)</text>
</a>
</g>
</g>
<!-- Set Theory (Hrbacek)&#45;&gt;Advanced Linear Algebra (Roman) -->
<g id="edge4" class="edge">
<title>Set Theory (Hrbacek)&#45;&gt;Advanced Linear Algebra (Roman)</title>
<path fill="none" stroke="black" d="M394.57,-71.7C391.41,-63.81 387.61,-54.3 384.11,-45.55"/>
<polygon fill="black" stroke="black" points="387.29,-44.09 380.33,-36.1 380.79,-46.69 387.29,-44.09"/>
</g>
</g>
</svg>
