<?xml version="1.0" encoding="UTF-8" standalone="no"?>
<!DOCTYPE svg PUBLIC "-//W3C//DTD SVG 1.1//EN"
 "http://www.w3.org/Graphics/SVG/1.1/DTD/svg11.dtd">
<!-- Generated by graphviz version 2.43.0 (0)
 -->
<!-- Title: G Pages: 1 -->
<svg width="1034pt" height="476pt"
 viewBox="0.00 0.00 1033.99 476.00" xmlns="http://www.w3.org/2000/svg" xmlns:xlink="http://www.w3.org/1999/xlink">
<g id="graph0" class="graph" transform="scale(1 1) rotate(0) translate(4 472)">
<title>G</title>
<polygon fill="white" stroke="transparent" points="-4,4 -4,-472 1029.99,-472 1029.99,4 -4,4"/>
<!-- Advanced Abstract Algebra -->
<g id="node1" class="node">
<title>Advanced Abstract Algebra</title>
<g id="a_node1"><a xlink:href="/field/AdvancedAbstractAlgebra" xlink:title="Advanced Abstract Algebra" target="_parent">
<ellipse fill="none" stroke="black" cx="540.84" cy="-234" rx="137.28" ry="18"/>
<text text-anchor="middle" x="540.84" y="-230.3" font-family="Times,serif" font-size="14.00">Advanced Abstract Algebra</text>
</a>
</g>
</g>
<!-- Advanced Algebraic Geometry -->
<g id="node2" class="node">
<title>Advanced Algebraic Geometry</title>
<g id="a_node2"><a xlink:href="/field/AdvancedAlgebraicGeometry" xlink:title="Advanced Algebraic Geometry" target="_parent">
<ellipse fill="none" stroke="black" cx="457.84" cy="-18" rx="151.37" ry="18"/>
<text text-anchor="middle" x="457.84" y="-14.3" font-family="Times,serif" font-size="14.00">Advanced Algebraic Geometry</text>
</a>
</g>
</g>
<!-- Advanced Abstract Algebra&#45;&gt;Advanced Algebraic Geometry -->
<g id="edge15" class="edge">
<title>Advanced Abstract Algebra&#45;&gt;Advanced Algebraic Geometry</title>
<path fill="none" stroke="black" d="M538.28,-215.82C533.31,-185.56 520.69,-121.3 496.84,-72 492.14,-62.28 485.6,-52.52 479.21,-44.06"/>
<polygon fill="black" stroke="black" points="481.88,-41.8 472.95,-36.1 476.38,-46.12 481.88,-41.8"/>
</g>
<!-- Advanced Analysis -->
<g id="node3" class="node">
<title>Advanced Analysis</title>
<g id="a_node3"><a xlink:href="/field/AdvancedAnalysis" xlink:title="Advanced Analysis" target="_parent">
<ellipse fill="none" stroke="black" cx="792.84" cy="-234" rx="96.68" ry="18"/>
<text text-anchor="middle" x="792.84" y="-230.3" font-family="Times,serif" font-size="14.00">Advanced Analysis</text>
</a>
</g>
</g>
<!-- Topology -->
<g id="node17" class="node">
<title>Topology</title>
<g id="a_node17"><a xlink:href="Topology" xlink:title="Topology" target="_parent">
<ellipse fill="none" stroke="black" cx="655.84" cy="-162" rx="52.79" ry="18"/>
<text text-anchor="middle" x="655.84" y="-158.3" font-family="Times,serif" font-size="14.00">Topology</text>
</a>
</g>
</g>
<!-- Advanced Analysis&#45;&gt;Topology -->
<g id="edge10" class="edge">
<title>Advanced Analysis&#45;&gt;Topology</title>
<path fill="none" stroke="black" d="M761.41,-216.94C741.04,-206.53 714.42,-192.93 693,-181.99"/>
<polygon fill="black" stroke="black" points="694.37,-178.75 683.87,-177.32 691.18,-184.99 694.37,-178.75"/>
</g>
<!-- Basic Abstract Algebra -->
<g id="node4" class="node">
<title>Basic Abstract Algebra</title>
<g id="a_node4"><a xlink:href="/field/BasicAbstractAlgebra" xlink:title="Basic Abstract Algebra" target="_parent">
<ellipse fill="none" stroke="black" cx="296.84" cy="-306" rx="116.98" ry="18"/>
<text text-anchor="middle" x="296.84" y="-302.3" font-family="Times,serif" font-size="14.00">Basic Abstract Algebra</text>
</a>
</g>
</g>
<!-- Basic Abstract Algebra&#45;&gt;Advanced Abstract Algebra -->
<g id="edge14" class="edge">
<title>Basic Abstract Algebra&#45;&gt;Advanced Abstract Algebra</title>
<path fill="none" stroke="black" d="M349.49,-289.9C386.81,-279.19 437.11,-264.76 476.76,-253.38"/>
<polygon fill="black" stroke="black" points="477.96,-256.68 486.6,-250.56 476.03,-249.95 477.96,-256.68"/>
</g>
<!-- Category Theory -->
<g id="node8" class="node">
<title>Category Theory</title>
<g id="a_node8"><a xlink:href="/field/CategoryTheory" xlink:title="Category Theory" target="_parent">
<ellipse fill="none" stroke="black" cx="399.84" cy="-90" rx="88.28" ry="18"/>
<text text-anchor="middle" x="399.84" y="-86.3" font-family="Times,serif" font-size="14.00">Category Theory</text>
</a>
</g>
</g>
<!-- Basic Abstract Algebra&#45;&gt;Category Theory -->
<g id="edge12" class="edge">
<title>Basic Abstract Algebra&#45;&gt;Category Theory</title>
<path fill="none" stroke="black" d="M321.92,-288.26C334.11,-278.92 347.99,-266.3 356.84,-252 382.94,-209.82 393.37,-151.93 397.41,-118.29"/>
<polygon fill="black" stroke="black" points="400.9,-118.59 398.51,-108.27 393.94,-117.82 400.9,-118.59"/>
</g>
<!-- Number Theory -->
<g id="node13" class="node">
<title>Number Theory</title>
<g id="a_node13"><a xlink:href="/field/NumberTheory" xlink:title="Number Theory" target="_parent">
<ellipse fill="none" stroke="black" cx="83.84" cy="-234" rx="83.69" ry="18"/>
<text text-anchor="middle" x="83.84" y="-230.3" font-family="Times,serif" font-size="14.00">Number Theory</text>
</a>
</g>
</g>
<!-- Basic Abstract Algebra&#45;&gt;Number Theory -->
<g id="edge8" class="edge">
<title>Basic Abstract Algebra&#45;&gt;Number Theory</title>
<path fill="none" stroke="black" d="M249.57,-289.46C216.44,-278.58 172.1,-264 137.62,-252.67"/>
<polygon fill="black" stroke="black" points="138.31,-249.21 127.71,-249.42 136.12,-255.87 138.31,-249.21"/>
</g>
<!-- Pure Geometry -->
<g id="node16" class="node">
<title>Pure Geometry</title>
<g id="a_node16"><a xlink:href="/field/PureGeometry" xlink:title="Pure Geometry" target="_parent">
<ellipse fill="none" stroke="black" cx="266.84" cy="-234" rx="81.49" ry="18"/>
<text text-anchor="middle" x="266.84" y="-230.3" font-family="Times,serif" font-size="14.00">Pure Geometry</text>
</a>
</g>
</g>
<!-- Basic Abstract Algebra&#45;&gt;Pure Geometry -->
<g id="edge22" class="edge">
<title>Basic Abstract Algebra&#45;&gt;Pure Geometry</title>
<path fill="none" stroke="black" d="M289.43,-287.7C286.05,-279.81 281.97,-270.3 278.22,-261.55"/>
<polygon fill="black" stroke="black" points="281.33,-259.92 274.17,-252.1 274.9,-262.67 281.33,-259.92"/>
</g>
<!-- Basic Algebraic Geometry -->
<g id="node5" class="node">
<title>Basic Algebraic Geometry</title>
<g id="a_node5"><a xlink:href="/field/BasicAlgebraicGeometry" xlink:title="Basic Algebraic Geometry" target="_parent">
<ellipse fill="none" stroke="black" cx="216.84" cy="-162" rx="131.08" ry="18"/>
<text text-anchor="middle" x="216.84" y="-158.3" font-family="Times,serif" font-size="14.00">Basic Algebraic Geometry</text>
</a>
</g>
</g>
<!-- Basic Algebraic Geometry&#45;&gt;Advanced Algebraic Geometry -->
<g id="edge19" class="edge">
<title>Basic Algebraic Geometry&#45;&gt;Advanced Algebraic Geometry</title>
<path fill="none" stroke="black" d="M229.27,-143.9C244.53,-124.02 272.19,-91.47 302.84,-72 326.68,-56.85 355.35,-45.48 381.52,-37.24"/>
<polygon fill="black" stroke="black" points="382.86,-40.49 391.41,-34.23 380.82,-33.79 382.86,-40.49"/>
</g>
<!-- Basic Analysis -->
<g id="node6" class="node">
<title>Basic Analysis</title>
<g id="a_node6"><a xlink:href="/field/BasicAnalysis" xlink:title="Basic Analysis" target="_parent">
<ellipse fill="none" stroke="black" cx="838.84" cy="-306" rx="77.19" ry="18"/>
<text text-anchor="middle" x="838.84" y="-302.3" font-family="Times,serif" font-size="14.00">Basic Analysis</text>
</a>
</g>
</g>
<!-- Basic Analysis&#45;&gt;Advanced Analysis -->
<g id="edge7" class="edge">
<title>Basic Analysis&#45;&gt;Advanced Analysis</title>
<path fill="none" stroke="black" d="M827.71,-288.05C822.31,-279.84 815.71,-269.79 809.7,-260.66"/>
<polygon fill="black" stroke="black" points="812.61,-258.71 804.19,-252.28 806.76,-262.55 812.61,-258.71"/>
</g>
<!-- Calculus -->
<g id="node7" class="node">
<title>Calculus</title>
<g id="a_node7"><a xlink:href="Calculus" xlink:title="Calculus" target="_parent">
<ellipse fill="none" stroke="black" cx="838.84" cy="-378" rx="50.09" ry="18"/>
<text text-anchor="middle" x="838.84" y="-374.3" font-family="Times,serif" font-size="14.00">Calculus</text>
</a>
</g>
</g>
<!-- Calculus&#45;&gt;Basic Analysis -->
<g id="edge4" class="edge">
<title>Calculus&#45;&gt;Basic Analysis</title>
<path fill="none" stroke="black" d="M838.84,-359.7C838.84,-351.98 838.84,-342.71 838.84,-334.11"/>
<polygon fill="black" stroke="black" points="842.34,-334.1 838.84,-324.1 835.34,-334.1 842.34,-334.1"/>
</g>
<!-- Physics -->
<g id="node14" class="node">
<title>Physics</title>
<g id="a_node14"><a xlink:href="Physics" xlink:title="Physics" target="_parent">
<ellipse fill="none" stroke="black" cx="979.84" cy="-306" rx="46.29" ry="18"/>
<text text-anchor="middle" x="979.84" y="-302.3" font-family="Times,serif" font-size="14.00">Physics</text>
</a>
</g>
</g>
<!-- Calculus&#45;&gt;Physics -->
<g id="edge20" class="edge">
<title>Calculus&#45;&gt;Physics</title>
<path fill="none" stroke="black" d="M867.04,-363C888.89,-352.15 919.35,-337.03 943.11,-325.24"/>
<polygon fill="black" stroke="black" points="944.78,-328.32 952.18,-320.73 941.66,-322.05 944.78,-328.32"/>
</g>
<!-- Category Theory&#45;&gt;Advanced Algebraic Geometry -->
<g id="edge16" class="edge">
<title>Category Theory&#45;&gt;Advanced Algebraic Geometry</title>
<path fill="none" stroke="black" d="M413.88,-72.05C420.83,-63.67 429.36,-53.38 437.05,-44.1"/>
<polygon fill="black" stroke="black" points="439.84,-46.21 443.53,-36.28 434.45,-41.74 439.84,-46.21"/>
</g>
<!-- Differential Geometry -->
<g id="node9" class="node">
<title>Differential Geometry</title>
<g id="a_node9"><a xlink:href="/field/DifferentialGeometry" xlink:title="Differential Geometry" target="_parent">
<ellipse fill="none" stroke="black" cx="655.84" cy="-90" rx="112.38" ry="18"/>
<text text-anchor="middle" x="655.84" y="-86.3" font-family="Times,serif" font-size="14.00">Differential Geometry</text>
</a>
</g>
</g>
<!-- Differential Geometry&#45;&gt;Advanced Algebraic Geometry -->
<g id="edge24" class="edge">
<title>Differential Geometry&#45;&gt;Advanced Algebraic Geometry</title>
<path fill="none" stroke="black" d="M611.41,-73.29C582.5,-63.07 544.56,-49.66 513.63,-38.72"/>
<polygon fill="black" stroke="black" points="514.44,-35.3 503.85,-35.26 512.11,-41.9 514.44,-35.3"/>
</g>
<!-- Foundations -->
<g id="node10" class="node">
<title>Foundations</title>
<g id="a_node10"><a xlink:href="Foundations" xlink:title="Foundations" target="_parent">
<ellipse fill="none" stroke="black" cx="675.84" cy="-306" rx="67.69" ry="18"/>
<text text-anchor="middle" x="675.84" y="-302.3" font-family="Times,serif" font-size="14.00">Foundations</text>
</a>
</g>
</g>
<!-- High School Math -->
<g id="node11" class="node">
<title>High School Math</title>
<g id="a_node11"><a xlink:href="/field/HighSchoolMath" xlink:title="High School Math" target="_parent">
<ellipse fill="none" stroke="black" cx="756.84" cy="-450" rx="94.48" ry="18"/>
<text text-anchor="middle" x="756.84" y="-446.3" font-family="Times,serif" font-size="14.00">High School Math</text>
</a>
</g>
</g>
<!-- High School Math&#45;&gt;Calculus -->
<g id="edge1" class="edge">
<title>High School Math&#45;&gt;Calculus</title>
<path fill="none" stroke="black" d="M776.69,-432.05C787.48,-422.85 800.95,-411.35 812.59,-401.41"/>
<polygon fill="black" stroke="black" points="814.97,-403.98 820.3,-394.83 810.42,-398.66 814.97,-403.98"/>
</g>
<!-- Proofs -->
<g id="node15" class="node">
<title>Proofs</title>
<g id="a_node15"><a xlink:href="Proofs" xlink:title="Proofs" target="_parent">
<ellipse fill="none" stroke="black" cx="675.84" cy="-378" rx="40.09" ry="18"/>
<text text-anchor="middle" x="675.84" y="-374.3" font-family="Times,serif" font-size="14.00">Proofs</text>
</a>
</g>
</g>
<!-- High School Math&#45;&gt;Proofs -->
<g id="edge2" class="edge">
<title>High School Math&#45;&gt;Proofs</title>
<path fill="none" stroke="black" d="M737.23,-432.05C726.43,-422.72 712.9,-411.02 701.29,-400.99"/>
<polygon fill="black" stroke="black" points="703.47,-398.25 693.61,-394.36 698.89,-403.54 703.47,-398.25"/>
</g>
<!-- Linear Algebra -->
<g id="node12" class="node">
<title>Linear Algebra</title>
<g id="a_node12"><a xlink:href="/field/LinearAlgebra" xlink:title="Linear Algebra" target="_parent">
<ellipse fill="none" stroke="black" cx="510.84" cy="-306" rx="79.09" ry="18"/>
<text text-anchor="middle" x="510.84" y="-302.3" font-family="Times,serif" font-size="14.00">Linear Algebra</text>
</a>
</g>
</g>
<!-- Linear Algebra&#45;&gt;Advanced Abstract Algebra -->
<g id="edge21" class="edge">
<title>Linear Algebra&#45;&gt;Advanced Abstract Algebra</title>
<path fill="none" stroke="black" d="M518.1,-288.05C521.52,-280.09 525.67,-270.41 529.48,-261.51"/>
<polygon fill="black" stroke="black" points="532.72,-262.85 533.44,-252.28 526.28,-260.09 532.72,-262.85"/>
</g>
<!-- Linear Algebra&#45;&gt;Advanced Analysis -->
<g id="edge9" class="edge">
<title>Linear Algebra&#45;&gt;Advanced Analysis</title>
<path fill="none" stroke="black" d="M562.24,-292.24C608.56,-280.74 676.9,-263.78 727.17,-251.3"/>
<polygon fill="black" stroke="black" points="728.11,-254.68 736.97,-248.87 726.42,-247.88 728.11,-254.68"/>
</g>
<!-- Linear Algebra&#45;&gt;Pure Geometry -->
<g id="edge18" class="edge">
<title>Linear Algebra&#45;&gt;Pure Geometry</title>
<path fill="none" stroke="black" d="M463.8,-291.5C423.97,-280.08 366.74,-263.66 324.23,-251.46"/>
<polygon fill="black" stroke="black" points="325.15,-248.09 314.58,-248.69 323.22,-254.82 325.15,-248.09"/>
</g>
<!-- Proofs&#45;&gt;Basic Abstract Algebra -->
<g id="edge6" class="edge">
<title>Proofs&#45;&gt;Basic Abstract Algebra</title>
<path fill="none" stroke="black" d="M639.16,-370.22C579.39,-359.19 459.56,-337.05 378.76,-322.13"/>
<polygon fill="black" stroke="black" points="379.08,-318.63 368.61,-320.26 377.81,-325.51 379.08,-318.63"/>
</g>
<!-- Proofs&#45;&gt;Basic Analysis -->
<g id="edge5" class="edge">
<title>Proofs&#45;&gt;Basic Analysis</title>
<path fill="none" stroke="black" d="M703.86,-364.97C728.64,-354.33 765.23,-338.61 794.06,-326.23"/>
<polygon fill="black" stroke="black" points="795.71,-329.33 803.52,-322.17 792.95,-322.9 795.71,-329.33"/>
</g>
<!-- Proofs&#45;&gt;Foundations -->
<g id="edge13" class="edge">
<title>Proofs&#45;&gt;Foundations</title>
<path fill="none" stroke="black" d="M675.84,-359.7C675.84,-351.98 675.84,-342.71 675.84,-334.11"/>
<polygon fill="black" stroke="black" points="679.34,-334.1 675.84,-324.1 672.34,-334.1 679.34,-334.1"/>
</g>
<!-- Proofs&#45;&gt;Linear Algebra -->
<g id="edge3" class="edge">
<title>Proofs&#45;&gt;Linear Algebra</title>
<path fill="none" stroke="black" d="M647.48,-364.97C622.39,-354.33 585.36,-338.61 556.17,-326.23"/>
<polygon fill="black" stroke="black" points="557.17,-322.85 546.6,-322.17 554.44,-329.3 557.17,-322.85"/>
</g>
<!-- Pure Geometry&#45;&gt;Basic Algebraic Geometry -->
<g id="edge23" class="edge">
<title>Pure Geometry&#45;&gt;Basic Algebraic Geometry</title>
<path fill="none" stroke="black" d="M254.74,-216.05C248.87,-207.84 241.69,-197.79 235.17,-188.66"/>
<polygon fill="black" stroke="black" points="237.84,-186.38 229.18,-180.28 232.15,-190.45 237.84,-186.38"/>
</g>
<!-- Topology&#45;&gt;Category Theory -->
<g id="edge11" class="edge">
<title>Topology&#45;&gt;Category Theory</title>
<path fill="none" stroke="black" d="M616.12,-150.14C574.47,-138.75 508.51,-120.71 460.37,-107.55"/>
<polygon fill="black" stroke="black" points="461.26,-104.17 450.69,-104.9 459.41,-110.92 461.26,-104.17"/>
</g>
<!-- Topology&#45;&gt;Differential Geometry -->
<g id="edge17" class="edge">
<title>Topology&#45;&gt;Differential Geometry</title>
<path fill="none" stroke="black" d="M655.84,-143.7C655.84,-135.98 655.84,-126.71 655.84,-118.11"/>
<polygon fill="black" stroke="black" points="659.34,-118.1 655.84,-108.1 652.34,-118.1 659.34,-118.1"/>
</g>
</g>
</svg>
