<?xml version="1.0" encoding="UTF-8" standalone="no"?>
<!DOCTYPE svg PUBLIC "-//W3C//DTD SVG 1.1//EN"
 "http://www.w3.org/Graphics/SVG/1.1/DTD/svg11.dtd">
<!-- Generated by graphviz version 2.43.0 (0)
 -->
<!-- Title: G Pages: 1 -->
<svg width="1342pt" height="404pt"
 viewBox="0.00 0.00 1341.72 404.00" xmlns="http://www.w3.org/2000/svg" xmlns:xlink="http://www.w3.org/1999/xlink">
<g id="graph0" class="graph" transform="scale(1 1) rotate(0) translate(4 400)">
<title>G</title>
<polygon fill="white" stroke="transparent" points="-4,4 -4,-400 1337.72,-400 1337.72,4 -4,4"/>
<!-- A First Course in Calculus (Lang) -->
<g id="node1" class="node">
<title>A First Course in Calculus (Lang)</title>
<g id="a_node1"><a xlink:href="/field/Calculus" xlink:title="A First Course in Calculus (Lang)" target="_parent">
<ellipse fill="none" stroke="red" cx="828.68" cy="-378" rx="165.17" ry="18"/>
<text text-anchor="middle" x="828.68" y="-374.3" font-family="Times,serif" font-size="14.00">A First Course in Calculus (Lang)</text>
</a>
</g>
</g>
<!-- Intro Physics (Moore/Morin) -->
<g id="node7" class="node">
<title>Intro Physics (Moore/Morin)</title>
<g id="a_node7"><a xlink:href="/books/IntroPhysics(Moore/Morin)" xlink:title="Intro Physics (Moore/Morin)" target="_parent">
<ellipse fill="none" stroke="black" cx="828.68" cy="-306" rx="141.88" ry="18"/>
<text text-anchor="middle" x="828.68" y="-302.3" font-family="Times,serif" font-size="14.00">Intro Physics (Moore/Morin)</text>
</a>
</g>
</g>
<!-- A First Course in Calculus (Lang)&#45;&gt;Intro Physics (Moore/Morin) -->
<g id="edge1" class="edge">
<title>A First Course in Calculus (Lang)&#45;&gt;Intro Physics (Moore/Morin)</title>
<path fill="none" stroke="black" d="M828.68,-359.7C828.68,-351.98 828.68,-342.71 828.68,-334.11"/>
<polygon fill="black" stroke="black" points="832.18,-334.1 828.68,-324.1 825.18,-334.1 832.18,-334.1"/>
</g>
<!-- Calculus on Several Variables (Lang) -->
<g id="node2" class="node">
<title>Calculus on Several Variables (Lang)</title>
<g id="a_node2"><a xlink:href="/field/Calculus" xlink:title="Calculus on Several Variables (Lang)" target="_parent">
<ellipse fill="none" stroke="red" cx="180.68" cy="-306" rx="180.87" ry="18"/>
<text text-anchor="middle" x="180.68" y="-302.3" font-family="Times,serif" font-size="14.00">Calculus on Several Variables (Lang)</text>
</a>
</g>
</g>
<!-- Classical Mechanics (Taylor/Gregory) -->
<g id="node3" class="node">
<title>Classical Mechanics (Taylor/Gregory)</title>
<g id="a_node3"><a xlink:href="/books/ClassicalMechanics(TaylorGregory)" xlink:title="Classical Mechanics (Taylor/Gregory)" target="_parent">
<ellipse fill="none" stroke="black" cx="506.68" cy="-234" rx="183.07" ry="18"/>
<text text-anchor="middle" x="506.68" y="-230.3" font-family="Times,serif" font-size="14.00">Classical Mechanics (Taylor/Gregory)</text>
</a>
</g>
</g>
<!-- Calculus on Several Variables (Lang)&#45;&gt;Classical Mechanics (Taylor/Gregory) -->
<g id="edge4" class="edge">
<title>Calculus on Several Variables (Lang)&#45;&gt;Classical Mechanics (Taylor/Gregory)</title>
<path fill="none" stroke="black" d="M253.03,-289.46C303.7,-278.59 371.5,-264.03 424.25,-252.7"/>
<polygon fill="black" stroke="black" points="425.21,-256.07 434.25,-250.55 423.74,-249.23 425.21,-256.07"/>
</g>
<!-- Quantum Mechanics (Shankar/McQuarrie) -->
<g id="node10" class="node">
<title>Quantum Mechanics (Shankar/McQuarrie)</title>
<g id="a_node10"><a xlink:href="/books/QuantumMechanics(ShankarMcQuarrie)" xlink:title="Quantum Mechanics (Shankar/McQuarrie)" target="_parent">
<ellipse fill="none" stroke="black" cx="506.68" cy="-18" rx="206.86" ry="18"/>
<text text-anchor="middle" x="506.68" y="-14.3" font-family="Times,serif" font-size="14.00">Quantum Mechanics (Shankar/McQuarrie)</text>
</a>
</g>
</g>
<!-- Classical Mechanics (Taylor/Gregory)&#45;&gt;Quantum Mechanics (Shankar/McQuarrie) -->
<g id="edge9" class="edge">
<title>Classical Mechanics (Taylor/Gregory)&#45;&gt;Quantum Mechanics (Shankar/McQuarrie)</title>
<path fill="none" stroke="black" d="M506.68,-215.85C506.68,-178.83 506.68,-91.18 506.68,-46.39"/>
<polygon fill="black" stroke="black" points="510.18,-46.23 506.68,-36.23 503.18,-46.23 510.18,-46.23"/>
</g>
<!-- Differential Geometry (Needham) -->
<g id="node4" class="node">
<title>Differential Geometry (Needham)</title>
<g id="a_node4"><a xlink:href="/field/DifferentialGeometry" xlink:title="Differential Geometry (Needham)" target="_parent">
<ellipse fill="none" stroke="red" cx="1166.68" cy="-234" rx="167.07" ry="18"/>
<text text-anchor="middle" x="1166.68" y="-230.3" font-family="Times,serif" font-size="14.00">Differential Geometry (Needham)</text>
</a>
</g>
</g>
<!-- General Relativity (Moore) -->
<g id="node6" class="node">
<title>General Relativity (Moore)</title>
<g id="a_node6"><a xlink:href="/books/GeneralRelativity(Moore)" xlink:title="General Relativity (Moore)" target="_parent">
<ellipse fill="none" stroke="black" cx="1166.68" cy="-162" rx="134.58" ry="18"/>
<text text-anchor="middle" x="1166.68" y="-158.3" font-family="Times,serif" font-size="14.00">General Relativity (Moore)</text>
</a>
</g>
</g>
<!-- Differential Geometry (Needham)&#45;&gt;General Relativity (Moore) -->
<g id="edge10" class="edge">
<title>Differential Geometry (Needham)&#45;&gt;General Relativity (Moore)</title>
<path fill="none" stroke="black" d="M1166.68,-215.7C1166.68,-207.98 1166.68,-198.71 1166.68,-190.11"/>
<polygon fill="black" stroke="black" points="1170.18,-190.1 1166.68,-180.1 1163.18,-190.1 1170.18,-190.1"/>
</g>
<!-- Electrodynamics (Wangsness/Ohanian) -->
<g id="node5" class="node">
<title>Electrodynamics (Wangsness/Ohanian)</title>
<g id="a_node5"><a xlink:href="/books/Electrodynamics(WangsnessOhanian)" xlink:title="Electrodynamics (Wangsness/Ohanian)" target="_parent">
<ellipse fill="none" stroke="black" cx="823.68" cy="-162" rx="190.37" ry="18"/>
<text text-anchor="middle" x="823.68" y="-158.3" font-family="Times,serif" font-size="14.00">Electrodynamics (Wangsness/Ohanian)</text>
</a>
</g>
</g>
<!-- Modern Physics (Taylor) -->
<g id="node9" class="node">
<title>Modern Physics (Taylor)</title>
<g id="a_node9"><a xlink:href="/books/ModernPhysics(Taylor)" xlink:title="Modern Physics (Taylor)" target="_parent">
<ellipse fill="none" stroke="black" cx="823.68" cy="-90" rx="123.48" ry="18"/>
<text text-anchor="middle" x="823.68" y="-86.3" font-family="Times,serif" font-size="14.00">Modern Physics (Taylor)</text>
</a>
</g>
</g>
<!-- Electrodynamics (Wangsness/Ohanian)&#45;&gt;Modern Physics (Taylor) -->
<g id="edge7" class="edge">
<title>Electrodynamics (Wangsness/Ohanian)&#45;&gt;Modern Physics (Taylor)</title>
<path fill="none" stroke="black" d="M823.68,-143.7C823.68,-135.98 823.68,-126.71 823.68,-118.11"/>
<polygon fill="black" stroke="black" points="827.18,-118.1 823.68,-108.1 820.18,-118.1 827.18,-118.1"/>
</g>
<!-- Intro Physics (Moore/Morin)&#45;&gt;Classical Mechanics (Taylor/Gregory) -->
<g id="edge3" class="edge">
<title>Intro Physics (Moore/Morin)&#45;&gt;Classical Mechanics (Taylor/Gregory)</title>
<path fill="none" stroke="black" d="M760.4,-290.15C710.19,-279.24 641.73,-264.36 588.58,-252.8"/>
<polygon fill="black" stroke="black" points="589.02,-249.32 578.5,-250.61 587.53,-256.16 589.02,-249.32"/>
</g>
<!-- Sepcial Relativity (Morin) -->
<g id="node11" class="node">
<title>Sepcial Relativity (Morin)</title>
<g id="a_node11"><a xlink:href="/books/SepcialRelativity(Morin)" xlink:title="Sepcial Relativity (Morin)" target="_parent">
<ellipse fill="none" stroke="black" cx="837.68" cy="-234" rx="129.98" ry="18"/>
<text text-anchor="middle" x="837.68" y="-230.3" font-family="Times,serif" font-size="14.00">Sepcial Relativity (Morin)</text>
</a>
</g>
</g>
<!-- Intro Physics (Moore/Morin)&#45;&gt;Sepcial Relativity (Morin) -->
<g id="edge6" class="edge">
<title>Intro Physics (Moore/Morin)&#45;&gt;Sepcial Relativity (Morin)</title>
<path fill="none" stroke="black" d="M830.91,-287.7C831.9,-279.98 833.09,-270.71 834.2,-262.11"/>
<polygon fill="black" stroke="black" points="837.68,-262.47 835.48,-252.1 830.74,-261.58 837.68,-262.47"/>
</g>
<!-- Linear Algebra (Friedberg) -->
<g id="node8" class="node">
<title>Linear Algebra (Friedberg)</title>
<g id="a_node8"><a xlink:href="/field/LinearAlgebra" xlink:title="Linear Algebra (Friedberg)" target="_parent">
<ellipse fill="none" stroke="red" cx="515.68" cy="-306" rx="135.68" ry="18"/>
<text text-anchor="middle" x="515.68" y="-302.3" font-family="Times,serif" font-size="14.00">Linear Algebra (Friedberg)</text>
</a>
</g>
</g>
<!-- Linear Algebra (Friedberg)&#45;&gt;Classical Mechanics (Taylor/Gregory) -->
<g id="edge2" class="edge">
<title>Linear Algebra (Friedberg)&#45;&gt;Classical Mechanics (Taylor/Gregory)</title>
<path fill="none" stroke="black" d="M513.46,-287.7C512.47,-279.98 511.28,-270.71 510.17,-262.11"/>
<polygon fill="black" stroke="black" points="513.63,-261.58 508.88,-252.1 506.69,-262.47 513.63,-261.58"/>
</g>
<!-- Modern Physics (Taylor)&#45;&gt;Quantum Mechanics (Shankar/McQuarrie) -->
<g id="edge8" class="edge">
<title>Modern Physics (Taylor)&#45;&gt;Quantum Mechanics (Shankar/McQuarrie)</title>
<path fill="none" stroke="black" d="M758.77,-74.67C709.59,-63.81 641.68,-48.81 588.74,-37.12"/>
<polygon fill="black" stroke="black" points="589.22,-33.64 578.7,-34.9 587.71,-40.48 589.22,-33.64"/>
</g>
<!-- Thermal Physics (Reif) -->
<g id="node12" class="node">
<title>Thermal Physics (Reif)</title>
<g id="a_node12"><a xlink:href="/books/ThermalPhysics(Reif)" xlink:title="Thermal Physics (Reif)" target="_parent">
<ellipse fill="none" stroke="black" cx="846.68" cy="-18" rx="115.88" ry="18"/>
<text text-anchor="middle" x="846.68" y="-14.3" font-family="Times,serif" font-size="14.00">Thermal Physics (Reif)</text>
</a>
</g>
</g>
<!-- Modern Physics (Taylor)&#45;&gt;Thermal Physics (Reif) -->
<g id="edge12" class="edge">
<title>Modern Physics (Taylor)&#45;&gt;Thermal Physics (Reif)</title>
<path fill="none" stroke="black" d="M829.37,-71.7C831.93,-63.9 835.02,-54.51 837.87,-45.83"/>
<polygon fill="black" stroke="black" points="841.27,-46.7 841.06,-36.1 834.62,-44.51 841.27,-46.7"/>
</g>
<!-- Sepcial Relativity (Morin)&#45;&gt;Electrodynamics (Wangsness/Ohanian) -->
<g id="edge5" class="edge">
<title>Sepcial Relativity (Morin)&#45;&gt;Electrodynamics (Wangsness/Ohanian)</title>
<path fill="none" stroke="black" d="M834.22,-215.7C832.68,-207.98 830.83,-198.71 829.11,-190.11"/>
<polygon fill="black" stroke="black" points="832.5,-189.22 827.1,-180.1 825.63,-190.6 832.5,-189.22"/>
</g>
<!-- Sepcial Relativity (Morin)&#45;&gt;General Relativity (Moore) -->
<g id="edge11" class="edge">
<title>Sepcial Relativity (Morin)&#45;&gt;General Relativity (Moore)</title>
<path fill="none" stroke="black" d="M905.45,-218.58C958.69,-207.25 1032.89,-191.47 1088.61,-179.61"/>
<polygon fill="black" stroke="black" points="1089.38,-183.03 1098.44,-177.52 1087.93,-176.18 1089.38,-183.03"/>
</g>
</g>
</svg>
