<?xml version="1.0" encoding="UTF-8" standalone="no"?>
<!DOCTYPE svg PUBLIC "-//W3C//DTD SVG 1.1//EN"
 "http://www.w3.org/Graphics/SVG/1.1/DTD/svg11.dtd">
<!-- Generated by graphviz version 2.43.0 (0)
 -->
<!-- Title: G Pages: 1 -->
<svg width="1064pt" height="260pt"
 viewBox="0.00 0.00 1063.87 260.00" xmlns="http://www.w3.org/2000/svg" xmlns:xlink="http://www.w3.org/1999/xlink">
<g id="graph0" class="graph" transform="scale(1 1) rotate(0) translate(4 256)">
<title>G</title>
<polygon fill="white" stroke="transparent" points="-4,4 -4,-256 1059.87,-256 1059.87,4 -4,4"/>
<!-- Linear Algebra (Friedberg) -->
<g id="node1" class="node">
<title>Linear Algebra (Friedberg)</title>
<ellipse fill="none" stroke="red" cx="159.69" cy="-234" rx="135.68" ry="18"/>
<text text-anchor="middle" x="159.69" y="-230.3" font-family="Times,serif" font-size="14.00">Linear Algebra (Friedberg)</text>
</g>
<!-- Analysis on R^n (Duistermaat) -->
<g id="node2" class="node">
<title>Analysis on R^n (Duistermaat)</title>
<ellipse fill="none" stroke="red" cx="154.69" cy="-162" rx="154.87" ry="18"/>
<text text-anchor="middle" x="154.69" y="-158.3" font-family="Times,serif" font-size="14.00">Analysis on R^n (Duistermaat)</text>
</g>
<!-- Linear Algebra (Friedberg)&#45;&gt;Analysis on R^n (Duistermaat) -->
<g id="edge1" class="edge">
<title>Linear Algebra (Friedberg)&#45;&gt;Analysis on R^n (Duistermaat)</title>
<path fill="none" stroke="black" d="M158.45,-215.7C157.9,-207.98 157.24,-198.71 156.62,-190.11"/>
<polygon fill="black" stroke="black" points="160.11,-189.83 155.91,-180.1 153.13,-190.33 160.11,-189.83"/>
</g>
<!-- Real Analysis (Carothers) -->
<g id="node3" class="node">
<title>Real Analysis (Carothers)</title>
<ellipse fill="none" stroke="black" cx="458.69" cy="-162" rx="128.88" ry="18"/>
<text text-anchor="middle" x="458.69" y="-158.3" font-family="Times,serif" font-size="14.00">Real Analysis (Carothers)</text>
</g>
<!-- Linear Algebra (Friedberg)&#45;&gt;Real Analysis (Carothers) -->
<g id="edge2" class="edge">
<title>Linear Algebra (Friedberg)&#45;&gt;Real Analysis (Carothers)</title>
<path fill="none" stroke="black" d="M223.46,-218.07C271.04,-206.93 336.11,-191.7 385.75,-180.08"/>
<polygon fill="black" stroke="black" points="386.84,-183.42 395.78,-177.73 385.24,-176.6 386.84,-183.42"/>
</g>
<!-- Complex Analysis (Freitag) -->
<g id="node6" class="node">
<title>Complex Analysis (Freitag)</title>
<ellipse fill="none" stroke="black" cx="151.69" cy="-90" rx="136.48" ry="18"/>
<text text-anchor="middle" x="151.69" y="-86.3" font-family="Times,serif" font-size="14.00">Complex Analysis (Freitag)</text>
</g>
<!-- Analysis on R^n (Duistermaat)&#45;&gt;Complex Analysis (Freitag) -->
<g id="edge5" class="edge">
<title>Analysis on R^n (Duistermaat)&#45;&gt;Complex Analysis (Freitag)</title>
<path fill="none" stroke="black" d="M153.94,-143.7C153.61,-135.98 153.22,-126.71 152.85,-118.11"/>
<polygon fill="black" stroke="black" points="156.34,-117.95 152.42,-108.1 149.35,-118.25 156.34,-117.95"/>
</g>
<!-- Measure Theory (Jones/Bartle) -->
<g id="node5" class="node">
<title>Measure Theory (Jones/Bartle)</title>
<ellipse fill="none" stroke="black" cx="458.69" cy="-90" rx="152.97" ry="18"/>
<text text-anchor="middle" x="458.69" y="-86.3" font-family="Times,serif" font-size="14.00">Measure Theory (Jones/Bartle)</text>
</g>
<!-- Real Analysis (Carothers)&#45;&gt;Measure Theory (Jones/Bartle) -->
<g id="edge4" class="edge">
<title>Real Analysis (Carothers)&#45;&gt;Measure Theory (Jones/Bartle)</title>
<path fill="none" stroke="black" d="M458.69,-143.7C458.69,-135.98 458.69,-126.71 458.69,-118.11"/>
<polygon fill="black" stroke="black" points="462.19,-118.1 458.69,-108.1 455.19,-118.1 462.19,-118.1"/>
</g>
<!-- Introductory Functional Analysis (Kreyszig) -->
<g id="node7" class="node">
<title>Introductory Functional Analysis (Kreyszig)</title>
<ellipse fill="none" stroke="black" cx="842.69" cy="-90" rx="213.36" ry="18"/>
<text text-anchor="middle" x="842.69" y="-86.3" font-family="Times,serif" font-size="14.00">Introductory Functional Analysis (Kreyszig)</text>
</g>
<!-- Real Analysis (Carothers)&#45;&gt;Introductory Functional Analysis (Kreyszig) -->
<g id="edge6" class="edge">
<title>Real Analysis (Carothers)&#45;&gt;Introductory Functional Analysis (Kreyszig)</title>
<path fill="none" stroke="black" d="M533.64,-147.34C594.78,-136.19 681.52,-120.38 747.56,-108.34"/>
<polygon fill="black" stroke="black" points="748.35,-111.76 757.56,-106.52 747.09,-104.87 748.35,-111.76"/>
</g>
<!-- Analysis on R (Bloch/Spivak) -->
<g id="node4" class="node">
<title>Analysis on R (Bloch/Spivak)</title>
<ellipse fill="none" stroke="red" cx="458.69" cy="-234" rx="142.97" ry="18"/>
<text text-anchor="middle" x="458.69" y="-230.3" font-family="Times,serif" font-size="14.00">Analysis on R (Bloch/Spivak)</text>
</g>
<!-- Analysis on R (Bloch/Spivak)&#45;&gt;Real Analysis (Carothers) -->
<g id="edge3" class="edge">
<title>Analysis on R (Bloch/Spivak)&#45;&gt;Real Analysis (Carothers)</title>
<path fill="none" stroke="black" d="M458.69,-215.7C458.69,-207.98 458.69,-198.71 458.69,-190.11"/>
<polygon fill="black" stroke="black" points="462.19,-190.1 458.69,-180.1 455.19,-190.1 462.19,-190.1"/>
</g>
<!-- Analysis Sequence of Simon -->
<g id="node9" class="node">
<title>Analysis Sequence of Simon</title>
<ellipse fill="none" stroke="black" cx="458.69" cy="-18" rx="141.07" ry="18"/>
<text text-anchor="middle" x="458.69" y="-14.3" font-family="Times,serif" font-size="14.00">Analysis Sequence of Simon</text>
</g>
<!-- Measure Theory (Jones/Bartle)&#45;&gt;Analysis Sequence of Simon -->
<g id="edge10" class="edge">
<title>Measure Theory (Jones/Bartle)&#45;&gt;Analysis Sequence of Simon</title>
<path fill="none" stroke="black" d="M458.69,-71.7C458.69,-63.98 458.69,-54.71 458.69,-46.11"/>
<polygon fill="black" stroke="black" points="462.19,-46.1 458.69,-36.1 455.19,-46.1 462.19,-46.1"/>
</g>
<!-- Complex Analysis 2 (Freitag) -->
<g id="node8" class="node">
<title>Complex Analysis 2 (Freitag)</title>
<ellipse fill="none" stroke="black" cx="151.69" cy="-18" rx="145.67" ry="18"/>
<text text-anchor="middle" x="151.69" y="-14.3" font-family="Times,serif" font-size="14.00">Complex Analysis 2 (Freitag)</text>
</g>
<!-- Complex Analysis (Freitag)&#45;&gt;Complex Analysis 2 (Freitag) -->
<g id="edge7" class="edge">
<title>Complex Analysis (Freitag)&#45;&gt;Complex Analysis 2 (Freitag)</title>
<path fill="none" stroke="black" d="M151.69,-71.7C151.69,-63.98 151.69,-54.71 151.69,-46.11"/>
<polygon fill="black" stroke="black" points="155.19,-46.1 151.69,-36.1 148.19,-46.1 155.19,-46.1"/>
</g>
<!-- Complex Analysis (Freitag)&#45;&gt;Analysis Sequence of Simon -->
<g id="edge9" class="edge">
<title>Complex Analysis (Freitag)&#45;&gt;Analysis Sequence of Simon</title>
<path fill="none" stroke="black" d="M216.79,-74.15C265.47,-63.06 332.14,-47.85 383.16,-36.22"/>
<polygon fill="black" stroke="black" points="384.17,-39.58 393.14,-33.94 382.62,-32.76 384.17,-39.58"/>
</g>
<!-- Introductory Functional Analysis (Kreyszig)&#45;&gt;Analysis Sequence of Simon -->
<g id="edge8" class="edge">
<title>Introductory Functional Analysis (Kreyszig)&#45;&gt;Analysis Sequence of Simon</title>
<path fill="none" stroke="black" d="M757.46,-73.46C694.65,-62.01 609.47,-46.49 546.14,-34.94"/>
<polygon fill="black" stroke="black" points="546.63,-31.47 536.17,-33.12 545.38,-38.36 546.63,-31.47"/>
</g>
</g>
</svg>
