<?xml version="1.0" encoding="UTF-8" standalone="no"?>
<!DOCTYPE svg PUBLIC "-//W3C//DTD SVG 1.1//EN"
 "http://www.w3.org/Graphics/SVG/1.1/DTD/svg11.dtd">
<!-- Generated by graphviz version 2.43.0 (0)
 -->
<!-- Title: G Pages: 1 -->
<svg width="1155pt" height="188pt"
 viewBox="0.00 0.00 1154.53 188.00" xmlns="http://www.w3.org/2000/svg" xmlns:xlink="http://www.w3.org/1999/xlink">
<g id="graph0" class="graph" transform="scale(1 1) rotate(0) translate(4 184)">
<title>G</title>
<polygon fill="white" stroke="transparent" points="-4,4 -4,-184 1150.53,-184 1150.53,4 -4,4"/>
<!-- Abstract Algebra (Dummit) -->
<g id="node1" class="node">
<title>Abstract Algebra (Dummit)</title>
<ellipse fill="none" stroke="red" cx="421.89" cy="-162" rx="136.48" ry="18"/>
<text text-anchor="middle" x="421.89" y="-158.3" font-family="Times,serif" font-size="14.00">Abstract Algebra (Dummit)</text>
</g>
<!-- Abstract Algebra (Aluffi) -->
<g id="node3" class="node">
<title>Abstract Algebra (Aluffi)</title>
<ellipse fill="none" stroke="black" cx="387.89" cy="-90" rx="124.28" ry="18"/>
<text text-anchor="middle" x="387.89" y="-86.3" font-family="Times,serif" font-size="14.00">Abstract Algebra (Aluffi)</text>
</g>
<!-- Abstract Algebra (Dummit)&#45;&gt;Abstract Algebra (Aluffi) -->
<g id="edge1" class="edge">
<title>Abstract Algebra (Dummit)&#45;&gt;Abstract Algebra (Aluffi)</title>
<path fill="none" stroke="black" d="M413.48,-143.7C409.61,-135.73 404.94,-126.1 400.64,-117.26"/>
<polygon fill="black" stroke="black" points="403.71,-115.57 396.2,-108.1 397.42,-118.63 403.71,-115.57"/>
</g>
<!-- Commutative Algebra (Atiyah) -->
<g id="node4" class="node">
<title>Commutative Algebra (Atiyah)</title>
<ellipse fill="none" stroke="black" cx="701.89" cy="-90" rx="151.37" ry="18"/>
<text text-anchor="middle" x="701.89" y="-86.3" font-family="Times,serif" font-size="14.00">Commutative Algebra (Atiyah)</text>
</g>
<!-- Abstract Algebra (Dummit)&#45;&gt;Commutative Algebra (Atiyah) -->
<g id="edge3" class="edge">
<title>Abstract Algebra (Dummit)&#45;&gt;Commutative Algebra (Atiyah)</title>
<path fill="none" stroke="black" d="M482.64,-145.81C525.95,-134.98 584.34,-120.39 629.97,-108.98"/>
<polygon fill="black" stroke="black" points="630.95,-112.34 639.8,-106.52 629.25,-105.55 630.95,-112.34"/>
</g>
<!-- Category Theory (Awodey) -->
<g id="node2" class="node">
<title>Category Theory (Awodey)</title>
<ellipse fill="none" stroke="red" cx="133.89" cy="-162" rx="133.78" ry="18"/>
<text text-anchor="middle" x="133.89" y="-158.3" font-family="Times,serif" font-size="14.00">Category Theory (Awodey)</text>
</g>
<!-- Category Theory (Awodey)&#45;&gt;Abstract Algebra (Aluffi) -->
<g id="edge2" class="edge">
<title>Category Theory (Awodey)&#45;&gt;Abstract Algebra (Aluffi)</title>
<path fill="none" stroke="black" d="M189.94,-145.55C229.3,-134.7 282.04,-120.17 323.19,-108.83"/>
<polygon fill="black" stroke="black" points="324.14,-112.2 332.85,-106.17 322.28,-105.45 324.14,-112.2"/>
</g>
<!-- Homological Algebra (Rotman) -->
<g id="node7" class="node">
<title>Homological Algebra (Rotman)</title>
<ellipse fill="none" stroke="black" cx="424.89" cy="-18" rx="153.27" ry="18"/>
<text text-anchor="middle" x="424.89" y="-14.3" font-family="Times,serif" font-size="14.00">Homological Algebra (Rotman)</text>
</g>
<!-- Category Theory (Awodey)&#45;&gt;Homological Algebra (Rotman) -->
<g id="edge7" class="edge">
<title>Category Theory (Awodey)&#45;&gt;Homological Algebra (Rotman)</title>
<path fill="none" stroke="black" d="M152.69,-144.04C175.42,-124.3 215.56,-91.89 254.89,-72 284.14,-57.21 318.31,-45.58 348.32,-37.03"/>
<polygon fill="black" stroke="black" points="349.63,-40.3 358.33,-34.25 347.75,-33.55 349.63,-40.3"/>
</g>
<!-- Commutative Algebra (Atiyah)&#45;&gt;Homological Algebra (Rotman) -->
<g id="edge6" class="edge">
<title>Commutative Algebra (Atiyah)&#45;&gt;Homological Algebra (Rotman)</title>
<path fill="none" stroke="black" d="M640.41,-73.46C597.88,-62.72 541.15,-48.38 496.57,-37.11"/>
<polygon fill="black" stroke="black" points="497.22,-33.67 486.67,-34.61 495.51,-40.46 497.22,-33.67"/>
</g>
<!-- Topology (Lee/Wilansky/Viro) -->
<g id="node5" class="node">
<title>Topology (Lee/Wilansky/Viro)</title>
<ellipse fill="none" stroke="red" cx="721.89" cy="-162" rx="145.67" ry="18"/>
<text text-anchor="middle" x="721.89" y="-158.3" font-family="Times,serif" font-size="14.00">Topology (Lee/Wilansky/Viro)</text>
</g>
<!-- Topology (Lee/Wilansky/Viro)&#45;&gt;Commutative Algebra (Atiyah) -->
<g id="edge4" class="edge">
<title>Topology (Lee/Wilansky/Viro)&#45;&gt;Commutative Algebra (Atiyah)</title>
<path fill="none" stroke="black" d="M716.94,-143.7C714.72,-135.9 712.03,-126.51 709.55,-117.83"/>
<polygon fill="black" stroke="black" points="712.89,-116.76 706.78,-108.1 706.16,-118.68 712.89,-116.76"/>
</g>
<!-- Algebraic Geometry (Cox) -->
<g id="node6" class="node">
<title>Algebraic Geometry (Cox)</title>
<ellipse fill="none" stroke="red" cx="1015.89" cy="-162" rx="130.78" ry="18"/>
<text text-anchor="middle" x="1015.89" y="-158.3" font-family="Times,serif" font-size="14.00">Algebraic Geometry (Cox)</text>
</g>
<!-- Algebraic Geometry (Cox)&#45;&gt;Commutative Algebra (Atiyah) -->
<g id="edge5" class="edge">
<title>Algebraic Geometry (Cox)&#45;&gt;Commutative Algebra (Atiyah)</title>
<path fill="none" stroke="black" d="M950.45,-146.41C900.72,-135.33 832.15,-120.04 779.63,-108.33"/>
<polygon fill="black" stroke="black" points="780.21,-104.87 769.69,-106.11 778.69,-111.71 780.21,-104.87"/>
</g>
</g>
</svg>
