<?xml version="1.0" encoding="UTF-8" standalone="no"?>
<!DOCTYPE svg PUBLIC "-//W3C//DTD SVG 1.1//EN"
 "http://www.w3.org/Graphics/SVG/1.1/DTD/svg11.dtd">
<!-- Generated by graphviz version 2.43.0 (0)
 -->
<!-- Title: G Pages: 1 -->
<svg width="1047pt" height="188pt"
 viewBox="0.00 0.00 1046.87 188.00" xmlns="http://www.w3.org/2000/svg" xmlns:xlink="http://www.w3.org/1999/xlink">
<g id="graph0" class="graph" transform="scale(1 1) rotate(0) translate(4 184)">
<title>G</title>
<polygon fill="white" stroke="transparent" points="-4,4 -4,-184 1042.87,-184 1042.87,4 -4,4"/>
<!-- A Book on Abstract Algebra (Pinter) -->
<g id="node1" class="node">
<title>A Book on Abstract Algebra (Pinter)</title>
<ellipse fill="none" stroke="red" cx="176.78" cy="-162" rx="176.57" ry="18"/>
<text text-anchor="middle" x="176.78" y="-158.3" font-family="Times,serif" font-size="14.00">A Book on Abstract Algebra (Pinter)</text>
</g>
<!-- Algebraic Geometry (Cox) -->
<g id="node2" class="node">
<title>Algebraic Geometry (Cox)</title>
<ellipse fill="none" stroke="black" cx="507.78" cy="-90" rx="130.78" ry="18"/>
<text text-anchor="middle" x="507.78" y="-86.3" font-family="Times,serif" font-size="14.00">Algebraic Geometry (Cox)</text>
</g>
<!-- A Book on Abstract Algebra (Pinter)&#45;&gt;Algebraic Geometry (Cox) -->
<g id="edge1" class="edge">
<title>A Book on Abstract Algebra (Pinter)&#45;&gt;Algebraic Geometry (Cox)</title>
<path fill="none" stroke="black" d="M249.83,-145.55C303.15,-134.28 375.32,-119.01 429.77,-107.5"/>
<polygon fill="black" stroke="black" points="430.66,-110.89 439.72,-105.39 429.21,-104.04 430.66,-110.89"/>
</g>
<!-- Elliptic Curves (Silverman) -->
<g id="node6" class="node">
<title>Elliptic Curves (Silverman)</title>
<ellipse fill="none" stroke="black" cx="677.78" cy="-18" rx="136.48" ry="18"/>
<text text-anchor="middle" x="677.78" y="-14.3" font-family="Times,serif" font-size="14.00">Elliptic Curves (Silverman)</text>
</g>
<!-- Algebraic Geometry (Cox)&#45;&gt;Elliptic Curves (Silverman) -->
<g id="edge5" class="edge">
<title>Algebraic Geometry (Cox)&#45;&gt;Elliptic Curves (Silverman)</title>
<path fill="none" stroke="black" d="M547.21,-72.76C571.59,-62.73 603.06,-49.77 628.99,-39.09"/>
<polygon fill="black" stroke="black" points="630.36,-42.31 638.28,-35.27 627.7,-35.84 630.36,-42.31"/>
</g>
<!-- Linear Algebra (Friedberg) -->
<g id="node3" class="node">
<title>Linear Algebra (Friedberg)</title>
<ellipse fill="none" stroke="red" cx="507.78" cy="-162" rx="135.68" ry="18"/>
<text text-anchor="middle" x="507.78" y="-158.3" font-family="Times,serif" font-size="14.00">Linear Algebra (Friedberg)</text>
</g>
<!-- Linear Algebra (Friedberg)&#45;&gt;Algebraic Geometry (Cox) -->
<g id="edge2" class="edge">
<title>Linear Algebra (Friedberg)&#45;&gt;Algebraic Geometry (Cox)</title>
<path fill="none" stroke="black" d="M507.78,-143.7C507.78,-135.98 507.78,-126.71 507.78,-118.11"/>
<polygon fill="black" stroke="black" points="511.28,-118.1 507.78,-108.1 504.28,-118.1 511.28,-118.1"/>
</g>
<!-- Geometry (Brannan) -->
<g id="node4" class="node">
<title>Geometry (Brannan)</title>
<ellipse fill="none" stroke="red" cx="767.78" cy="-162" rx="105.88" ry="18"/>
<text text-anchor="middle" x="767.78" y="-158.3" font-family="Times,serif" font-size="14.00">Geometry (Brannan)</text>
</g>
<!-- Geometry (Brannan)&#45;&gt;Algebraic Geometry (Cox) -->
<g id="edge3" class="edge">
<title>Geometry (Brannan)&#45;&gt;Algebraic Geometry (Cox)</title>
<path fill="none" stroke="black" d="M713.91,-146.5C673.48,-135.61 617.88,-120.64 574.61,-108.99"/>
<polygon fill="black" stroke="black" points="575.31,-105.55 564.74,-106.33 573.49,-112.31 575.31,-105.55"/>
</g>
<!-- A Gateway to Number Theory (Kendig) -->
<g id="node5" class="node">
<title>A Gateway to Number Theory (Kendig)</title>
<ellipse fill="none" stroke="red" cx="847.78" cy="-90" rx="191.17" ry="18"/>
<text text-anchor="middle" x="847.78" y="-86.3" font-family="Times,serif" font-size="14.00">A Gateway to Number Theory (Kendig)</text>
</g>
<!-- A Gateway to Number Theory (Kendig)&#45;&gt;Elliptic Curves (Silverman) -->
<g id="edge4" class="edge">
<title>A Gateway to Number Theory (Kendig)&#45;&gt;Elliptic Curves (Silverman)</title>
<path fill="none" stroke="black" d="M807.07,-72.23C782.94,-62.3 752.21,-49.64 726.76,-39.17"/>
<polygon fill="black" stroke="black" points="727.87,-35.84 717.29,-35.27 725.21,-42.31 727.87,-35.84"/>
</g>
</g>
</svg>
