<?xml version="1.0" encoding="UTF-8" standalone="no"?>
<!DOCTYPE svg PUBLIC "-//W3C//DTD SVG 1.1//EN"
 "http://www.w3.org/Graphics/SVG/1.1/DTD/svg11.dtd">
<!-- Generated by graphviz version 2.43.0 (0)
 -->
<!-- Title: G Pages: 1 -->
<svg width="652pt" height="188pt"
 viewBox="0.00 0.00 651.62 188.00" xmlns="http://www.w3.org/2000/svg" xmlns:xlink="http://www.w3.org/1999/xlink">
<g id="graph0" class="graph" transform="scale(1 1) rotate(0) translate(4 184)">
<title>G</title>
<polygon fill="white" stroke="transparent" points="-4,4 -4,-184 647.62,-184 647.62,4 -4,4"/>
<!-- How To Prove It (Velleman) -->
<g id="node1" class="node">
<title>How To Prove It (Velleman)</title>
<ellipse fill="none" stroke="red" cx="176.78" cy="-162" rx="137.58" ry="18"/>
<text text-anchor="middle" x="176.78" y="-158.3" font-family="Times,serif" font-size="14.00">How To Prove It (Velleman)</text>
</g>
<!-- A Book on Abstract Algebra (Pinter) -->
<g id="node2" class="node">
<title>A Book on Abstract Algebra (Pinter)</title>
<ellipse fill="none" stroke="black" cx="176.78" cy="-90" rx="176.57" ry="18"/>
<text text-anchor="middle" x="176.78" y="-86.3" font-family="Times,serif" font-size="14.00">A Book on Abstract Algebra (Pinter)</text>
</g>
<!-- How To Prove It (Velleman)&#45;&gt;A Book on Abstract Algebra (Pinter) -->
<g id="edge1" class="edge">
<title>How To Prove It (Velleman)&#45;&gt;A Book on Abstract Algebra (Pinter)</title>
<path fill="none" stroke="black" d="M176.78,-143.7C176.78,-135.98 176.78,-126.71 176.78,-118.11"/>
<polygon fill="black" stroke="black" points="180.28,-118.1 176.78,-108.1 173.28,-118.1 180.28,-118.1"/>
</g>
<!-- Abstract Algebra (Dummit) -->
<g id="node4" class="node">
<title>Abstract Algebra (Dummit)</title>
<ellipse fill="none" stroke="black" cx="341.78" cy="-18" rx="136.48" ry="18"/>
<text text-anchor="middle" x="341.78" y="-14.3" font-family="Times,serif" font-size="14.00">Abstract Algebra (Dummit)</text>
</g>
<!-- A Book on Abstract Algebra (Pinter)&#45;&gt;Abstract Algebra (Dummit) -->
<g id="edge2" class="edge">
<title>A Book on Abstract Algebra (Pinter)&#45;&gt;Abstract Algebra (Dummit)</title>
<path fill="none" stroke="black" d="M215.89,-72.41C239.29,-62.48 269.22,-49.79 294.02,-39.26"/>
<polygon fill="black" stroke="black" points="295.41,-42.48 303.25,-35.35 292.67,-36.03 295.41,-42.48"/>
</g>
<!-- Linear Algebra (Friedberg) -->
<g id="node3" class="node">
<title>Linear Algebra (Friedberg)</title>
<ellipse fill="none" stroke="red" cx="507.78" cy="-90" rx="135.68" ry="18"/>
<text text-anchor="middle" x="507.78" y="-86.3" font-family="Times,serif" font-size="14.00">Linear Algebra (Friedberg)</text>
</g>
<!-- Linear Algebra (Friedberg)&#45;&gt;Abstract Algebra (Dummit) -->
<g id="edge3" class="edge">
<title>Linear Algebra (Friedberg)&#45;&gt;Abstract Algebra (Dummit)</title>
<path fill="none" stroke="black" d="M468.86,-72.59C445.24,-62.63 414.91,-49.84 389.8,-39.25"/>
<polygon fill="black" stroke="black" points="391.03,-35.97 380.46,-35.31 388.31,-42.42 391.03,-35.97"/>
</g>
</g>
</svg>
