<?xml version="1.0" encoding="UTF-8" standalone="no"?>
<!DOCTYPE svg PUBLIC "-//W3C//DTD SVG 1.1//EN"
 "http://www.w3.org/Graphics/SVG/1.1/DTD/svg11.dtd">
<!-- Generated by graphviz version 2.43.0 (0)
 -->
<!-- Title: G Pages: 1 -->
<svg width="670pt" height="188pt"
 viewBox="0.00 0.00 670.37 188.00" xmlns="http://www.w3.org/2000/svg" xmlns:xlink="http://www.w3.org/1999/xlink">
<g id="graph0" class="graph" transform="scale(1 1) rotate(0) translate(4 184)">
<title>G</title>
<polygon fill="white" stroke="transparent" points="-4,4 -4,-184 666.37,-184 666.37,4 -4,4"/>
<!-- Topology (Lee/Wilansky/Viro) -->
<g id="node1" class="node">
<title>Topology (Lee/Wilansky/Viro)</title>
<ellipse fill="none" stroke="red" cx="145.59" cy="-162" rx="145.67" ry="18"/>
<text text-anchor="middle" x="145.59" y="-158.3" font-family="Times,serif" font-size="14.00">Topology (Lee/Wilansky/Viro)</text>
</g>
<!-- Category Theory (Awodey) -->
<g id="node3" class="node">
<title>Category Theory (Awodey)</title>
<ellipse fill="none" stroke="black" cx="315.59" cy="-90" rx="133.78" ry="18"/>
<text text-anchor="middle" x="315.59" y="-86.3" font-family="Times,serif" font-size="14.00">Category Theory (Awodey)</text>
</g>
<!-- Topology (Lee/Wilansky/Viro)&#45;&gt;Category Theory (Awodey) -->
<g id="edge1" class="edge">
<title>Topology (Lee/Wilansky/Viro)&#45;&gt;Category Theory (Awodey)</title>
<path fill="none" stroke="black" d="M185.44,-144.59C209.64,-134.63 240.7,-121.84 266.41,-111.25"/>
<polygon fill="black" stroke="black" points="268.07,-114.35 275.98,-107.31 265.4,-107.88 268.07,-114.35"/>
</g>
<!-- A Book on Asbtract Algebra (Pinter) -->
<g id="node2" class="node">
<title>A Book on Asbtract Algebra (Pinter)</title>
<ellipse fill="none" stroke="red" cx="485.59" cy="-162" rx="176.57" ry="18"/>
<text text-anchor="middle" x="485.59" y="-158.3" font-family="Times,serif" font-size="14.00">A Book on Asbtract Algebra (Pinter)</text>
</g>
<!-- A Book on Asbtract Algebra (Pinter)&#45;&gt;Category Theory (Awodey) -->
<g id="edge2" class="edge">
<title>A Book on Asbtract Algebra (Pinter)&#45;&gt;Category Theory (Awodey)</title>
<path fill="none" stroke="black" d="M445.3,-144.41C421.1,-134.44 390.13,-121.69 364.52,-111.15"/>
<polygon fill="black" stroke="black" points="365.58,-107.8 355,-107.23 362.91,-114.27 365.58,-107.8"/>
</g>
<!-- Topos Theory (Goldblatt) -->
<g id="node4" class="node">
<title>Topos Theory (Goldblatt)</title>
<ellipse fill="none" stroke="black" cx="315.59" cy="-18" rx="126.18" ry="18"/>
<text text-anchor="middle" x="315.59" y="-14.3" font-family="Times,serif" font-size="14.00">Topos Theory (Goldblatt)</text>
</g>
<!-- Category Theory (Awodey)&#45;&gt;Topos Theory (Goldblatt) -->
<g id="edge3" class="edge">
<title>Category Theory (Awodey)&#45;&gt;Topos Theory (Goldblatt)</title>
<path fill="none" stroke="black" d="M315.59,-71.7C315.59,-63.98 315.59,-54.71 315.59,-46.11"/>
<polygon fill="black" stroke="black" points="319.09,-46.1 315.59,-36.1 312.09,-46.1 319.09,-46.1"/>
</g>
</g>
</svg>
