<?xml version="1.0" encoding="UTF-8" standalone="no"?>
<!DOCTYPE svg PUBLIC "-//W3C//DTD SVG 1.1//EN"
 "http://www.w3.org/Graphics/SVG/1.1/DTD/svg11.dtd">
<!-- Generated by graphviz version 2.43.0 (0)
 -->
<!-- Title: G Pages: 1 -->
<svg width="838pt" height="260pt"
 viewBox="0.00 0.00 837.56 260.00" xmlns="http://www.w3.org/2000/svg" xmlns:xlink="http://www.w3.org/1999/xlink">
<g id="graph0" class="graph" transform="scale(1 1) rotate(0) translate(4 256)">
<title>G</title>
<polygon fill="white" stroke="transparent" points="-4,4 -4,-256 833.56,-256 833.56,4 -4,4"/>
<!-- Analysis on R^n (Duistermaat) -->
<g id="node1" class="node">
<title>Analysis on R^n (Duistermaat)</title>
<ellipse fill="none" stroke="red" cx="259.98" cy="-234" rx="154.87" ry="18"/>
<text text-anchor="middle" x="259.98" y="-230.3" font-family="Times,serif" font-size="14.00">Analysis on R^n (Duistermaat)</text>
</g>
<!-- Classical Differential Geometry (Do Carmo/Needham) -->
<g id="node2" class="node">
<title>Classical Differential Geometry (Do Carmo/Needham)</title>
<ellipse fill="none" stroke="black" cx="259.98" cy="-162" rx="259.95" ry="18"/>
<text text-anchor="middle" x="259.98" y="-158.3" font-family="Times,serif" font-size="14.00">Classical Differential Geometry (Do Carmo/Needham)</text>
</g>
<!-- Analysis on R^n (Duistermaat)&#45;&gt;Classical Differential Geometry (Do Carmo/Needham) -->
<g id="edge1" class="edge">
<title>Analysis on R^n (Duistermaat)&#45;&gt;Classical Differential Geometry (Do Carmo/Needham)</title>
<path fill="none" stroke="black" d="M259.98,-215.7C259.98,-207.98 259.98,-198.71 259.98,-190.11"/>
<polygon fill="black" stroke="black" points="263.48,-190.1 259.98,-180.1 256.48,-190.1 263.48,-190.1"/>
</g>
<!-- Differentiable Manifolds (Lee) -->
<g id="node4" class="node">
<title>Differentiable Manifolds (Lee)</title>
<ellipse fill="none" stroke="black" cx="471.98" cy="-90" rx="150.27" ry="18"/>
<text text-anchor="middle" x="471.98" y="-86.3" font-family="Times,serif" font-size="14.00">Differentiable Manifolds (Lee)</text>
</g>
<!-- Classical Differential Geometry (Do Carmo/Needham)&#45;&gt;Differentiable Manifolds (Lee) -->
<g id="edge2" class="edge">
<title>Classical Differential Geometry (Do Carmo/Needham)&#45;&gt;Differentiable Manifolds (Lee)</title>
<path fill="none" stroke="black" d="M310.49,-144.32C341.45,-134.1 381.22,-120.97 413.54,-110.3"/>
<polygon fill="black" stroke="black" points="414.92,-113.53 423.31,-107.07 412.72,-106.88 414.92,-113.53"/>
</g>
<!-- Topology (Lee/Wilansky/Viro) -->
<g id="node3" class="node">
<title>Topology (Lee/Wilansky/Viro)</title>
<ellipse fill="none" stroke="red" cx="683.98" cy="-162" rx="145.67" ry="18"/>
<text text-anchor="middle" x="683.98" y="-158.3" font-family="Times,serif" font-size="14.00">Topology (Lee/Wilansky/Viro)</text>
</g>
<!-- Topology (Lee/Wilansky/Viro)&#45;&gt;Differentiable Manifolds (Lee) -->
<g id="edge3" class="edge">
<title>Topology (Lee/Wilansky/Viro)&#45;&gt;Differentiable Manifolds (Lee)</title>
<path fill="none" stroke="black" d="M635.34,-144.94C604.08,-134.62 563.28,-121.15 530.28,-110.25"/>
<polygon fill="black" stroke="black" points="531.35,-106.92 520.75,-107.11 529.15,-113.56 531.35,-106.92"/>
</g>
<!-- Riemannian Manifolds (Lee) -->
<g id="node5" class="node">
<title>Riemannian Manifolds (Lee)</title>
<ellipse fill="none" stroke="black" cx="471.98" cy="-18" rx="141.07" ry="18"/>
<text text-anchor="middle" x="471.98" y="-14.3" font-family="Times,serif" font-size="14.00">Riemannian Manifolds (Lee)</text>
</g>
<!-- Differentiable Manifolds (Lee)&#45;&gt;Riemannian Manifolds (Lee) -->
<g id="edge4" class="edge">
<title>Differentiable Manifolds (Lee)&#45;&gt;Riemannian Manifolds (Lee)</title>
<path fill="none" stroke="black" d="M471.98,-71.7C471.98,-63.98 471.98,-54.71 471.98,-46.11"/>
<polygon fill="black" stroke="black" points="475.48,-46.1 471.98,-36.1 468.48,-46.1 475.48,-46.1"/>
</g>
</g>
</svg>
