<?xml version="1.0" encoding="UTF-8" standalone="no"?>
<!DOCTYPE svg PUBLIC "-//W3C//DTD SVG 1.1//EN"
 "http://www.w3.org/Graphics/SVG/1.1/DTD/svg11.dtd">
<!-- Generated by graphviz version 2.43.0 (0)
 -->
<!-- Title: G Pages: 1 -->
<svg width="1002pt" height="476pt"
 viewBox="0.00 0.00 1001.99 476.00" xmlns="http://www.w3.org/2000/svg" xmlns:xlink="http://www.w3.org/1999/xlink">
<g id="graph0" class="graph" transform="scale(1 1) rotate(0) translate(4 472)">
<title>G</title>
<polygon fill="white" stroke="transparent" points="-4,4 -4,-472 997.99,-472 997.99,4 -4,4"/>
<!-- High School Math -->
<g id="node1" class="node">
<title>High School Math</title>
<ellipse fill="none" stroke="black" cx="718.84" cy="-450" rx="94.48" ry="18"/>
<text text-anchor="middle" x="718.84" y="-446.3" font-family="Times,serif" font-size="14.00">High School Math</text>
</g>
<!-- Calculus -->
<g id="node2" class="node">
<title>Calculus</title>
<ellipse fill="none" stroke="black" cx="806.84" cy="-378" rx="50.09" ry="18"/>
<text text-anchor="middle" x="806.84" y="-374.3" font-family="Times,serif" font-size="14.00">Calculus</text>
</g>
<!-- High School Math&#45;&gt;Calculus -->
<g id="edge1" class="edge">
<title>High School Math&#45;&gt;Calculus</title>
<path fill="none" stroke="black" d="M739.7,-432.41C751.45,-423.06 766.29,-411.25 779.03,-401.12"/>
<polygon fill="black" stroke="black" points="781.4,-403.71 787.04,-394.75 777.04,-398.24 781.4,-403.71"/>
</g>
<!-- Proofs -->
<g id="node3" class="node">
<title>Proofs</title>
<ellipse fill="none" stroke="black" cx="631.84" cy="-378" rx="40.09" ry="18"/>
<text text-anchor="middle" x="631.84" y="-374.3" font-family="Times,serif" font-size="14.00">Proofs</text>
</g>
<!-- High School Math&#45;&gt;Proofs -->
<g id="edge2" class="edge">
<title>High School Math&#45;&gt;Proofs</title>
<path fill="none" stroke="black" d="M698.22,-432.41C686.35,-422.86 671.3,-410.75 658.54,-400.48"/>
<polygon fill="black" stroke="black" points="660.52,-397.58 650.53,-394.04 656.13,-403.03 660.52,-397.58"/>
</g>
<!-- Basic Analysis -->
<g id="node5" class="node">
<title>Basic Analysis</title>
<ellipse fill="none" stroke="black" cx="806.84" cy="-306" rx="77.19" ry="18"/>
<text text-anchor="middle" x="806.84" y="-302.3" font-family="Times,serif" font-size="14.00">Basic Analysis</text>
</g>
<!-- Calculus&#45;&gt;Basic Analysis -->
<g id="edge4" class="edge">
<title>Calculus&#45;&gt;Basic Analysis</title>
<path fill="none" stroke="black" d="M806.84,-359.7C806.84,-351.98 806.84,-342.71 806.84,-334.11"/>
<polygon fill="black" stroke="black" points="810.34,-334.1 806.84,-324.1 803.34,-334.1 810.34,-334.1"/>
</g>
<!-- Physics -->
<g id="node17" class="node">
<title>Physics</title>
<ellipse fill="none" stroke="black" cx="947.84" cy="-306" rx="46.29" ry="18"/>
<text text-anchor="middle" x="947.84" y="-302.3" font-family="Times,serif" font-size="14.00">Physics</text>
</g>
<!-- Calculus&#45;&gt;Physics -->
<g id="edge20" class="edge">
<title>Calculus&#45;&gt;Physics</title>
<path fill="none" stroke="black" d="M835.04,-363C856.89,-352.15 887.35,-337.03 911.11,-325.24"/>
<polygon fill="black" stroke="black" points="912.78,-328.32 920.18,-320.73 909.66,-322.05 912.78,-328.32"/>
</g>
<!-- Linear Algebra -->
<g id="node4" class="node">
<title>Linear Algebra</title>
<ellipse fill="none" stroke="black" cx="631.84" cy="-306" rx="79.09" ry="18"/>
<text text-anchor="middle" x="631.84" y="-302.3" font-family="Times,serif" font-size="14.00">Linear Algebra</text>
</g>
<!-- Proofs&#45;&gt;Linear Algebra -->
<g id="edge3" class="edge">
<title>Proofs&#45;&gt;Linear Algebra</title>
<path fill="none" stroke="black" d="M631.84,-359.7C631.84,-351.98 631.84,-342.71 631.84,-334.11"/>
<polygon fill="black" stroke="black" points="635.34,-334.1 631.84,-324.1 628.34,-334.1 635.34,-334.1"/>
</g>
<!-- Proofs&#45;&gt;Basic Analysis -->
<g id="edge5" class="edge">
<title>Proofs&#45;&gt;Basic Analysis</title>
<path fill="none" stroke="black" d="M660.74,-365.44C687.75,-354.64 728.55,-338.32 760.17,-325.67"/>
<polygon fill="black" stroke="black" points="761.68,-328.83 769.67,-321.87 759.08,-322.33 761.68,-328.83"/>
</g>
<!-- Basic Abstract Algebra -->
<g id="node6" class="node">
<title>Basic Abstract Algebra</title>
<ellipse fill="none" stroke="black" cx="417.84" cy="-306" rx="116.98" ry="18"/>
<text text-anchor="middle" x="417.84" y="-302.3" font-family="Times,serif" font-size="14.00">Basic Abstract Algebra</text>
</g>
<!-- Proofs&#45;&gt;Basic Abstract Algebra -->
<g id="edge6" class="edge">
<title>Proofs&#45;&gt;Basic Abstract Algebra</title>
<path fill="none" stroke="black" d="M600.27,-366.67C567.4,-355.92 515.21,-338.85 475.06,-325.72"/>
<polygon fill="black" stroke="black" points="475.99,-322.34 465.39,-322.55 473.81,-328.99 475.99,-322.34"/>
</g>
<!-- Foundations -->
<g id="node11" class="node">
<title>Foundations</title>
<ellipse fill="none" stroke="black" cx="214.84" cy="-306" rx="67.69" ry="18"/>
<text text-anchor="middle" x="214.84" y="-302.3" font-family="Times,serif" font-size="14.00">Foundations</text>
</g>
<!-- Proofs&#45;&gt;Foundations -->
<g id="edge13" class="edge">
<title>Proofs&#45;&gt;Foundations</title>
<path fill="none" stroke="black" d="M593.72,-371.85C530.7,-363.16 400.9,-344.52 291.84,-324 286.15,-322.93 280.24,-321.75 274.34,-320.52"/>
<polygon fill="black" stroke="black" points="274.96,-317.08 264.45,-318.43 273.51,-323.93 274.96,-317.08"/>
</g>
<!-- Advanced Analysis -->
<g id="node7" class="node">
<title>Advanced Analysis</title>
<ellipse fill="none" stroke="black" cx="817.84" cy="-234" rx="96.68" ry="18"/>
<text text-anchor="middle" x="817.84" y="-230.3" font-family="Times,serif" font-size="14.00">Advanced Analysis</text>
</g>
<!-- Linear Algebra&#45;&gt;Advanced Analysis -->
<g id="edge9" class="edge">
<title>Linear Algebra&#45;&gt;Advanced Analysis</title>
<path fill="none" stroke="black" d="M670.83,-290.33C698.9,-279.76 737.01,-265.42 767.4,-253.98"/>
<polygon fill="black" stroke="black" points="768.84,-257.18 776.97,-250.38 766.38,-250.63 768.84,-257.18"/>
</g>
<!-- Advanced Abstract Algebra -->
<g id="node12" class="node">
<title>Advanced Abstract Algebra</title>
<ellipse fill="none" stroke="black" cx="322.84" cy="-234" rx="137.28" ry="18"/>
<text text-anchor="middle" x="322.84" y="-230.3" font-family="Times,serif" font-size="14.00">Advanced Abstract Algebra</text>
</g>
<!-- Linear Algebra&#45;&gt;Advanced Abstract Algebra -->
<g id="edge21" class="edge">
<title>Linear Algebra&#45;&gt;Advanced Abstract Algebra</title>
<path fill="none" stroke="black" d="M577.67,-292.73C527.95,-281.46 453.81,-264.67 398.3,-252.09"/>
<polygon fill="black" stroke="black" points="399.04,-248.67 388.51,-249.88 397.49,-255.5 399.04,-248.67"/>
</g>
<!-- Pure Geometry -->
<g id="node15" class="node">
<title>Pure Geometry</title>
<ellipse fill="none" stroke="black" cx="621.84" cy="-234" rx="81.49" ry="18"/>
<text text-anchor="middle" x="621.84" y="-230.3" font-family="Times,serif" font-size="14.00">Pure Geometry</text>
</g>
<!-- Linear Algebra&#45;&gt;Pure Geometry -->
<g id="edge18" class="edge">
<title>Linear Algebra&#45;&gt;Pure Geometry</title>
<path fill="none" stroke="black" d="M629.37,-287.7C628.27,-279.98 626.94,-270.71 625.72,-262.11"/>
<polygon fill="black" stroke="black" points="629.17,-261.51 624.29,-252.1 622.24,-262.5 629.17,-261.51"/>
</g>
<!-- Basic Analysis&#45;&gt;Advanced Analysis -->
<g id="edge7" class="edge">
<title>Basic Analysis&#45;&gt;Advanced Analysis</title>
<path fill="none" stroke="black" d="M809.56,-287.7C810.77,-279.98 812.23,-270.71 813.58,-262.11"/>
<polygon fill="black" stroke="black" points="817.06,-262.53 815.15,-252.1 810.14,-261.44 817.06,-262.53"/>
</g>
<!-- Number Theory -->
<g id="node8" class="node">
<title>Number Theory</title>
<ellipse fill="none" stroke="black" cx="83.84" cy="-234" rx="83.69" ry="18"/>
<text text-anchor="middle" x="83.84" y="-230.3" font-family="Times,serif" font-size="14.00">Number Theory</text>
</g>
<!-- Basic Abstract Algebra&#45;&gt;Number Theory -->
<g id="edge8" class="edge">
<title>Basic Abstract Algebra&#45;&gt;Number Theory</title>
<path fill="none" stroke="black" d="M351.46,-291.09C293.46,-278.93 209.65,-261.37 151.33,-249.14"/>
<polygon fill="black" stroke="black" points="151.98,-245.7 141.47,-247.08 150.54,-252.55 151.98,-245.7"/>
</g>
<!-- Category Theory -->
<g id="node10" class="node">
<title>Category Theory</title>
<ellipse fill="none" stroke="black" cx="530.84" cy="-90" rx="88.28" ry="18"/>
<text text-anchor="middle" x="530.84" y="-86.3" font-family="Times,serif" font-size="14.00">Category Theory</text>
</g>
<!-- Basic Abstract Algebra&#45;&gt;Category Theory -->
<g id="edge12" class="edge">
<title>Basic Abstract Algebra&#45;&gt;Category Theory</title>
<path fill="none" stroke="black" d="M437.66,-288.24C448.11,-278.54 460.47,-265.59 468.84,-252 495.54,-208.68 487.89,-191.22 506.84,-144 510.4,-135.15 514.6,-125.61 518.48,-117.1"/>
<polygon fill="black" stroke="black" points="521.66,-118.57 522.68,-108.02 515.3,-115.63 521.66,-118.57"/>
</g>
<!-- Basic Abstract Algebra&#45;&gt;Advanced Abstract Algebra -->
<g id="edge14" class="edge">
<title>Basic Abstract Algebra&#45;&gt;Advanced Abstract Algebra</title>
<path fill="none" stroke="black" d="M394.85,-288.05C382.59,-279.03 367.35,-267.79 354.04,-257.99"/>
<polygon fill="black" stroke="black" points="355.75,-254.9 345.63,-251.79 351.6,-260.54 355.75,-254.9"/>
</g>
<!-- Basic Abstract Algebra&#45;&gt;Pure Geometry -->
<g id="edge22" class="edge">
<title>Basic Abstract Algebra&#45;&gt;Pure Geometry</title>
<path fill="none" stroke="black" d="M463.37,-289.38C494.87,-278.57 536.86,-264.16 569.71,-252.89"/>
<polygon fill="black" stroke="black" points="571.26,-256.06 579.59,-249.5 568.99,-249.44 571.26,-256.06"/>
</g>
<!-- Topology -->
<g id="node9" class="node">
<title>Topology</title>
<ellipse fill="none" stroke="black" cx="848.84" cy="-162" rx="52.79" ry="18"/>
<text text-anchor="middle" x="848.84" y="-158.3" font-family="Times,serif" font-size="14.00">Topology</text>
</g>
<!-- Advanced Analysis&#45;&gt;Topology -->
<g id="edge10" class="edge">
<title>Advanced Analysis&#45;&gt;Topology</title>
<path fill="none" stroke="black" d="M825.51,-215.7C829.03,-207.73 833.3,-198.1 837.21,-189.26"/>
<polygon fill="black" stroke="black" points="840.42,-190.67 841.27,-180.1 834.02,-187.83 840.42,-190.67"/>
</g>
<!-- Topology&#45;&gt;Category Theory -->
<g id="edge11" class="edge">
<title>Topology&#45;&gt;Category Theory</title>
<path fill="none" stroke="black" d="M809.58,-149.83C802.06,-147.8 794.22,-145.77 786.84,-144 725.3,-129.21 654.84,-114.8 603.44,-104.76"/>
<polygon fill="black" stroke="black" points="603.91,-101.28 593.43,-102.8 602.57,-108.15 603.91,-101.28"/>
</g>
<!-- Differential Geometry -->
<g id="node14" class="node">
<title>Differential Geometry</title>
<ellipse fill="none" stroke="black" cx="817.84" cy="-90" rx="112.38" ry="18"/>
<text text-anchor="middle" x="817.84" y="-86.3" font-family="Times,serif" font-size="14.00">Differential Geometry</text>
</g>
<!-- Topology&#45;&gt;Differential Geometry -->
<g id="edge17" class="edge">
<title>Topology&#45;&gt;Differential Geometry</title>
<path fill="none" stroke="black" d="M841.34,-144.05C837.81,-136.09 833.52,-126.41 829.58,-117.51"/>
<polygon fill="black" stroke="black" points="832.74,-116 825.49,-108.28 826.34,-118.84 832.74,-116"/>
</g>
<!-- Advanced Algebraic Geometry -->
<g id="node13" class="node">
<title>Advanced Algebraic Geometry</title>
<ellipse fill="none" stroke="black" cx="588.84" cy="-18" rx="151.37" ry="18"/>
<text text-anchor="middle" x="588.84" y="-14.3" font-family="Times,serif" font-size="14.00">Advanced Algebraic Geometry</text>
</g>
<!-- Category Theory&#45;&gt;Advanced Algebraic Geometry -->
<g id="edge16" class="edge">
<title>Category Theory&#45;&gt;Advanced Algebraic Geometry</title>
<path fill="none" stroke="black" d="M544.88,-72.05C551.83,-63.67 560.36,-53.38 568.05,-44.1"/>
<polygon fill="black" stroke="black" points="570.84,-46.21 574.53,-36.28 565.45,-41.74 570.84,-46.21"/>
</g>
<!-- Advanced Abstract Algebra&#45;&gt;Advanced Algebraic Geometry -->
<g id="edge15" class="edge">
<title>Advanced Abstract Algebra&#45;&gt;Advanced Algebraic Geometry</title>
<path fill="none" stroke="black" d="M330.1,-215.99C344.86,-183.35 381.48,-111.67 433.84,-72 454.76,-56.16 480.72,-44.85 505.39,-36.87"/>
<polygon fill="black" stroke="black" points="506.61,-40.15 515.13,-33.86 504.54,-33.47 506.61,-40.15"/>
</g>
<!-- Differential Geometry&#45;&gt;Advanced Algebraic Geometry -->
<g id="edge24" class="edge">
<title>Differential Geometry&#45;&gt;Advanced Algebraic Geometry</title>
<path fill="none" stroke="black" d="M768.15,-73.81C733.74,-63.29 687.68,-49.21 650.86,-37.96"/>
<polygon fill="black" stroke="black" points="651.81,-34.59 641.22,-35.01 649.76,-41.28 651.81,-34.59"/>
</g>
<!-- Basic Algebraic Geometry -->
<g id="node16" class="node">
<title>Basic Algebraic Geometry</title>
<ellipse fill="none" stroke="black" cx="646.84" cy="-162" rx="131.08" ry="18"/>
<text text-anchor="middle" x="646.84" y="-158.3" font-family="Times,serif" font-size="14.00">Basic Algebraic Geometry</text>
</g>
<!-- Pure Geometry&#45;&gt;Basic Algebraic Geometry -->
<g id="edge23" class="edge">
<title>Pure Geometry&#45;&gt;Basic Algebraic Geometry</title>
<path fill="none" stroke="black" d="M628.02,-215.7C630.84,-207.81 634.23,-198.3 637.36,-189.55"/>
<polygon fill="black" stroke="black" points="640.67,-190.7 640.73,-180.1 634.07,-188.34 640.67,-190.7"/>
</g>
<!-- Basic Algebraic Geometry&#45;&gt;Advanced Algebraic Geometry -->
<g id="edge19" class="edge">
<title>Basic Algebraic Geometry&#45;&gt;Advanced Algebraic Geometry</title>
<path fill="none" stroke="black" d="M645.36,-143.94C643.27,-125.51 638.46,-95.63 627.84,-72 623.42,-62.15 616.94,-52.35 610.54,-43.91"/>
<polygon fill="black" stroke="black" points="613.19,-41.62 604.23,-35.96 607.71,-45.97 613.19,-41.62"/>
</g>
</g>
</svg>
