<?xml version="1.0" encoding="UTF-8" standalone="no"?>
<!DOCTYPE svg PUBLIC "-//W3C//DTD SVG 1.1//EN"
 "http://www.w3.org/Graphics/SVG/1.1/DTD/svg11.dtd">
<!-- Generated by graphviz version 2.43.0 (0)
 -->
<!-- Title: G Pages: 1 -->
<svg width="1315pt" height="404pt"
 viewBox="0.00 0.00 1314.87 404.00" xmlns="http://www.w3.org/2000/svg" xmlns:xlink="http://www.w3.org/1999/xlink">
<g id="graph0" class="graph" transform="scale(1 1) rotate(0) translate(4 400)">
<title>G</title>
<polygon fill="white" stroke="transparent" points="-4,4 -4,-400 1310.87,-400 1310.87,4 -4,4"/>
<!-- A First Course in Calculus (Lang) -->
<g id="node1" class="node">
<title>A First Course in Calculus (Lang)</title>
<ellipse fill="none" stroke="red" cx="810.84" cy="-378" rx="165.17" ry="18"/>
<text text-anchor="middle" x="810.84" y="-374.3" font-family="Times,serif" font-size="14.00">A First Course in Calculus (Lang)</text>
</g>
<!-- Intro Physics (Moore/Morin) -->
<g id="node2" class="node">
<title>Intro Physics (Moore/Morin)</title>
<ellipse fill="none" stroke="black" cx="810.84" cy="-306" rx="141.88" ry="18"/>
<text text-anchor="middle" x="810.84" y="-302.3" font-family="Times,serif" font-size="14.00">Intro Physics (Moore/Morin)</text>
</g>
<!-- A First Course in Calculus (Lang)&#45;&gt;Intro Physics (Moore/Morin) -->
<g id="edge1" class="edge">
<title>A First Course in Calculus (Lang)&#45;&gt;Intro Physics (Moore/Morin)</title>
<path fill="none" stroke="black" d="M810.84,-359.7C810.84,-351.98 810.84,-342.71 810.84,-334.11"/>
<polygon fill="black" stroke="black" points="814.34,-334.1 810.84,-324.1 807.34,-334.1 814.34,-334.1"/>
</g>
<!-- Classical Mechanics (Taylor/Gregory) -->
<g id="node4" class="node">
<title>Classical Mechanics (Taylor/Gregory)</title>
<ellipse fill="none" stroke="black" cx="470.84" cy="-234" rx="183.07" ry="18"/>
<text text-anchor="middle" x="470.84" y="-230.3" font-family="Times,serif" font-size="14.00">Classical Mechanics (Taylor/Gregory)</text>
</g>
<!-- Intro Physics (Moore/Morin)&#45;&gt;Classical Mechanics (Taylor/Gregory) -->
<g id="edge3" class="edge">
<title>Intro Physics (Moore/Morin)&#45;&gt;Classical Mechanics (Taylor/Gregory)</title>
<path fill="none" stroke="black" d="M739.98,-290.41C686.46,-279.39 612.79,-264.23 556.06,-252.55"/>
<polygon fill="black" stroke="black" points="556.53,-249.07 546.03,-250.48 555.12,-255.93 556.53,-249.07"/>
</g>
<!-- Sepcial Relativity (Morin) -->
<g id="node6" class="node">
<title>Sepcial Relativity (Morin)</title>
<ellipse fill="none" stroke="black" cx="810.84" cy="-234" rx="129.98" ry="18"/>
<text text-anchor="middle" x="810.84" y="-230.3" font-family="Times,serif" font-size="14.00">Sepcial Relativity (Morin)</text>
</g>
<!-- Intro Physics (Moore/Morin)&#45;&gt;Sepcial Relativity (Morin) -->
<g id="edge6" class="edge">
<title>Intro Physics (Moore/Morin)&#45;&gt;Sepcial Relativity (Morin)</title>
<path fill="none" stroke="black" d="M810.84,-287.7C810.84,-279.98 810.84,-270.71 810.84,-262.11"/>
<polygon fill="black" stroke="black" points="814.34,-262.1 810.84,-252.1 807.34,-262.1 814.34,-262.1"/>
</g>
<!-- Linear Algebra (Friedberg) -->
<g id="node3" class="node">
<title>Linear Algebra (Friedberg)</title>
<ellipse fill="none" stroke="red" cx="135.84" cy="-306" rx="135.68" ry="18"/>
<text text-anchor="middle" x="135.84" y="-302.3" font-family="Times,serif" font-size="14.00">Linear Algebra (Friedberg)</text>
</g>
<!-- Linear Algebra (Friedberg)&#45;&gt;Classical Mechanics (Taylor/Gregory) -->
<g id="edge2" class="edge">
<title>Linear Algebra (Friedberg)&#45;&gt;Classical Mechanics (Taylor/Gregory)</title>
<path fill="none" stroke="black" d="M205.25,-290.5C257.95,-279.48 330.65,-264.29 386.67,-252.59"/>
<polygon fill="black" stroke="black" points="387.5,-255.99 396.57,-250.52 386.07,-249.14 387.5,-255.99"/>
</g>
<!-- Quantum Mechanics (Shankar/McQuarrie) -->
<g id="node9" class="node">
<title>Quantum Mechanics (Shankar/McQuarrie)</title>
<ellipse fill="none" stroke="black" cx="470.84" cy="-18" rx="206.86" ry="18"/>
<text text-anchor="middle" x="470.84" y="-14.3" font-family="Times,serif" font-size="14.00">Quantum Mechanics (Shankar/McQuarrie)</text>
</g>
<!-- Classical Mechanics (Taylor/Gregory)&#45;&gt;Quantum Mechanics (Shankar/McQuarrie) -->
<g id="edge9" class="edge">
<title>Classical Mechanics (Taylor/Gregory)&#45;&gt;Quantum Mechanics (Shankar/McQuarrie)</title>
<path fill="none" stroke="black" d="M470.84,-215.85C470.84,-178.83 470.84,-91.18 470.84,-46.39"/>
<polygon fill="black" stroke="black" points="474.34,-46.23 470.84,-36.23 467.34,-46.23 474.34,-46.23"/>
</g>
<!-- Calculus on Several Variables (Lang) -->
<g id="node5" class="node">
<title>Calculus on Several Variables (Lang)</title>
<ellipse fill="none" stroke="red" cx="470.84" cy="-306" rx="180.87" ry="18"/>
<text text-anchor="middle" x="470.84" y="-302.3" font-family="Times,serif" font-size="14.00">Calculus on Several Variables (Lang)</text>
</g>
<!-- Calculus on Several Variables (Lang)&#45;&gt;Classical Mechanics (Taylor/Gregory) -->
<g id="edge4" class="edge">
<title>Calculus on Several Variables (Lang)&#45;&gt;Classical Mechanics (Taylor/Gregory)</title>
<path fill="none" stroke="black" d="M470.84,-287.7C470.84,-279.98 470.84,-270.71 470.84,-262.11"/>
<polygon fill="black" stroke="black" points="474.34,-262.1 470.84,-252.1 467.34,-262.1 474.34,-262.1"/>
</g>
<!-- Electrodynamics (Wangsness/Ohanian) -->
<g id="node7" class="node">
<title>Electrodynamics (Wangsness/Ohanian)</title>
<ellipse fill="none" stroke="black" cx="796.84" cy="-162" rx="190.37" ry="18"/>
<text text-anchor="middle" x="796.84" y="-158.3" font-family="Times,serif" font-size="14.00">Electrodynamics (Wangsness/Ohanian)</text>
</g>
<!-- Sepcial Relativity (Morin)&#45;&gt;Electrodynamics (Wangsness/Ohanian) -->
<g id="edge5" class="edge">
<title>Sepcial Relativity (Morin)&#45;&gt;Electrodynamics (Wangsness/Ohanian)</title>
<path fill="none" stroke="black" d="M807.38,-215.7C805.83,-207.98 803.98,-198.71 802.26,-190.11"/>
<polygon fill="black" stroke="black" points="805.65,-189.22 800.26,-180.1 798.79,-190.6 805.65,-189.22"/>
</g>
<!-- General Relativity (Moore) -->
<g id="node11" class="node">
<title>General Relativity (Moore)</title>
<ellipse fill="none" stroke="black" cx="1139.84" cy="-162" rx="134.58" ry="18"/>
<text text-anchor="middle" x="1139.84" y="-158.3" font-family="Times,serif" font-size="14.00">General Relativity (Moore)</text>
</g>
<!-- Sepcial Relativity (Morin)&#45;&gt;General Relativity (Moore) -->
<g id="edge11" class="edge">
<title>Sepcial Relativity (Morin)&#45;&gt;General Relativity (Moore)</title>
<path fill="none" stroke="black" d="M878.61,-218.58C931.84,-207.25 1006.04,-191.47 1061.76,-179.61"/>
<polygon fill="black" stroke="black" points="1062.54,-183.03 1071.59,-177.52 1061.08,-176.18 1062.54,-183.03"/>
</g>
<!-- Modern Physics (Taylor) -->
<g id="node8" class="node">
<title>Modern Physics (Taylor)</title>
<ellipse fill="none" stroke="black" cx="796.84" cy="-90" rx="123.48" ry="18"/>
<text text-anchor="middle" x="796.84" y="-86.3" font-family="Times,serif" font-size="14.00">Modern Physics (Taylor)</text>
</g>
<!-- Electrodynamics (Wangsness/Ohanian)&#45;&gt;Modern Physics (Taylor) -->
<g id="edge7" class="edge">
<title>Electrodynamics (Wangsness/Ohanian)&#45;&gt;Modern Physics (Taylor)</title>
<path fill="none" stroke="black" d="M796.84,-143.7C796.84,-135.98 796.84,-126.71 796.84,-118.11"/>
<polygon fill="black" stroke="black" points="800.34,-118.1 796.84,-108.1 793.34,-118.1 800.34,-118.1"/>
</g>
<!-- Modern Physics (Taylor)&#45;&gt;Quantum Mechanics (Shankar/McQuarrie) -->
<g id="edge8" class="edge">
<title>Modern Physics (Taylor)&#45;&gt;Quantum Mechanics (Shankar/McQuarrie)</title>
<path fill="none" stroke="black" d="M730.47,-74.75C679.74,-63.86 609.45,-48.76 554.8,-37.03"/>
<polygon fill="black" stroke="black" points="555.3,-33.56 544.78,-34.88 553.83,-40.4 555.3,-33.56"/>
</g>
<!-- Thermal Physics (Reif) -->
<g id="node12" class="node">
<title>Thermal Physics (Reif)</title>
<ellipse fill="none" stroke="black" cx="810.84" cy="-18" rx="115.88" ry="18"/>
<text text-anchor="middle" x="810.84" y="-14.3" font-family="Times,serif" font-size="14.00">Thermal Physics (Reif)</text>
</g>
<!-- Modern Physics (Taylor)&#45;&gt;Thermal Physics (Reif) -->
<g id="edge12" class="edge">
<title>Modern Physics (Taylor)&#45;&gt;Thermal Physics (Reif)</title>
<path fill="none" stroke="black" d="M800.3,-71.7C801.84,-63.98 803.7,-54.71 805.42,-46.11"/>
<polygon fill="black" stroke="black" points="808.89,-46.6 807.42,-36.1 802.02,-45.22 808.89,-46.6"/>
</g>
<!-- Differential Geometry (Needham) -->
<g id="node10" class="node">
<title>Differential Geometry (Needham)</title>
<ellipse fill="none" stroke="red" cx="1139.84" cy="-234" rx="167.07" ry="18"/>
<text text-anchor="middle" x="1139.84" y="-230.3" font-family="Times,serif" font-size="14.00">Differential Geometry (Needham)</text>
</g>
<!-- Differential Geometry (Needham)&#45;&gt;General Relativity (Moore) -->
<g id="edge10" class="edge">
<title>Differential Geometry (Needham)&#45;&gt;General Relativity (Moore)</title>
<path fill="none" stroke="black" d="M1139.84,-215.7C1139.84,-207.98 1139.84,-198.71 1139.84,-190.11"/>
<polygon fill="black" stroke="black" points="1143.34,-190.1 1139.84,-180.1 1136.34,-190.1 1143.34,-190.1"/>
</g>
</g>
</svg>
