<?xml version="1.0" encoding="UTF-8" standalone="no"?>
<!DOCTYPE svg PUBLIC "-//W3C//DTD SVG 1.1//EN"
 "http://www.w3.org/Graphics/SVG/1.1/DTD/svg11.dtd">
<!-- Generated by graphviz version 2.43.0 (0)
 -->
<!-- Title: G Pages: 1 -->
<svg width="636pt" height="188pt"
 viewBox="0.00 0.00 635.82 188.00" xmlns="http://www.w3.org/2000/svg" xmlns:xlink="http://www.w3.org/1999/xlink">
<g id="graph0" class="graph" transform="scale(1 1) rotate(0) translate(4 184)">
<title>G</title>
<polygon fill="white" stroke="transparent" points="-4,4 -4,-184 631.82,-184 631.82,4 -4,4"/>
<!-- Real Analysis (Carothers) -->
<g id="node1" class="node">
<title>Real Analysis (Carothers)</title>
<ellipse fill="none" stroke="red" cx="128.69" cy="-162" rx="128.88" ry="18"/>
<text text-anchor="middle" x="128.69" y="-158.3" font-family="Times,serif" font-size="14.00">Real Analysis (Carothers)</text>
</g>
<!-- Topology (Lee/Wilansky/Viro) -->
<g id="node2" class="node">
<title>Topology (Lee/Wilansky/Viro)</title>
<ellipse fill="none" stroke="black" cx="289.69" cy="-90" rx="145.67" ry="18"/>
<text text-anchor="middle" x="289.69" y="-86.3" font-family="Times,serif" font-size="14.00">Topology (Lee/Wilansky/Viro)</text>
</g>
<!-- Real Analysis (Carothers)&#45;&gt;Topology (Lee/Wilansky/Viro) -->
<g id="edge1" class="edge">
<title>Real Analysis (Carothers)&#45;&gt;Topology (Lee/Wilansky/Viro)</title>
<path fill="none" stroke="black" d="M166.03,-144.76C188.83,-134.85 218.18,-122.09 242.57,-111.49"/>
<polygon fill="black" stroke="black" points="244.22,-114.59 251.99,-107.39 241.43,-108.17 244.22,-114.59"/>
</g>
<!-- Algebraic Topology (Rotman) -->
<g id="node4" class="node">
<title>Algebraic Topology (Rotman)</title>
<ellipse fill="none" stroke="black" cx="289.69" cy="-18" rx="145.67" ry="18"/>
<text text-anchor="middle" x="289.69" y="-14.3" font-family="Times,serif" font-size="14.00">Algebraic Topology (Rotman)</text>
</g>
<!-- Topology (Lee/Wilansky/Viro)&#45;&gt;Algebraic Topology (Rotman) -->
<g id="edge3" class="edge">
<title>Topology (Lee/Wilansky/Viro)&#45;&gt;Algebraic Topology (Rotman)</title>
<path fill="none" stroke="black" d="M289.69,-71.7C289.69,-63.98 289.69,-54.71 289.69,-46.11"/>
<polygon fill="black" stroke="black" points="293.19,-46.1 289.69,-36.1 286.19,-46.1 293.19,-46.1"/>
</g>
<!-- A Book on Abstract algebra (Pinter) -->
<g id="node3" class="node">
<title>A Book on Abstract algebra (Pinter)</title>
<ellipse fill="none" stroke="red" cx="451.69" cy="-162" rx="176.27" ry="18"/>
<text text-anchor="middle" x="451.69" y="-158.3" font-family="Times,serif" font-size="14.00">A Book on Abstract algebra (Pinter)</text>
</g>
<!-- A Book on Abstract algebra (Pinter)&#45;&gt;Topology (Lee/Wilansky/Viro) -->
<g id="edge2" class="edge">
<title>A Book on Abstract algebra (Pinter)&#45;&gt;Topology (Lee/Wilansky/Viro)</title>
<path fill="none" stroke="black" d="M413.3,-144.41C390.5,-134.56 361.41,-121.99 337.17,-111.52"/>
<polygon fill="black" stroke="black" points="338.37,-108.22 327.8,-107.47 335.6,-114.65 338.37,-108.22"/>
</g>
</g>
</svg>
